<?xml version="1.0" encoding="UTF-8" standalone="no"?><!DOCTYPE svg PUBLIC "-//W3C//DTD SVG 1.1//EN" "http://www.w3.org/Graphics/SVG/1.1/DTD/svg11.dtd"><svg width="100%" height="100%" viewBox="0 0 1920 1080" version="1.1" xmlns="http://www.w3.org/2000/svg" xmlns:xlink="http://www.w3.org/1999/xlink" xml:space="preserve" xmlns:serif="http://www.serif.com/" style="fill-rule:evenodd;clip-rule:evenodd;stroke-linecap:round;stroke-linejoin:round;stroke-miterlimit:1.5;"><g id="Layer1"><g><rect x="0" y="0" width="1920" height="1080" style="fill:#aac8d5;"/></g><path d="M0,453.955c455.57,425.555 1250.44,435.518 1365.38,301.033c64.708,-75.714 172.278,-84.249 246.514,0c107.867,122.418 199.34,39.83 308.105,0l0,325.012l-1920,0l0,-626.045" style="fill:#3d7c93;"/><g><path d="M1746.99,696.027l-0.01,0.004c-50.397,-69.619 -89.448,-95.228 -89.448,-95.228l-86.334,-10.762l-86.336,10.762c0,0 -39.061,25.617 -89.468,95.261l-0.011,-0.005c0,0 -1.28,1.538 -3.081,4.293c-0.026,0.037 -0.052,0.071 -0.078,0.107l0.007,0.005c-5.011,7.691 -14.039,24.881 -11.888,46.523c0,0 3.945,-8.575 11.926,-17.724c-1.824,7.082 -2.836,15.312 -1.938,24.363c0,0 5.427,-11.834 16.489,-22.536c-3.064,8.407 -5.335,19.122 -4.119,31.353c0,0 7.987,-17.484 24.421,-29.162c-0.542,15.079 -7.273,21.668 -7.273,21.668c25.162,-3.954 29.693,-22.088 29.723,-22.21c2.254,-5.391 11.253,-25.236 24.822,-33.697c9.117,-5.687 20.199,3.559 16.335,13.586c-8.521,22.116 -23.083,95.863 -25.242,140.122l62.582,0c0,0 7.348,-60.354 43.129,-60.354c35.779,0 43.128,60.354 43.128,60.354l62.582,0c-2.159,-44.259 -16.721,-118.006 -25.242,-140.122c-3.864,-10.027 7.217,-19.273 16.335,-13.586c14.214,8.864 23.408,30.206 25.092,34.344c1.059,3.24 7.076,18.036 29.526,21.563c0,0 -6.733,-6.589 -7.273,-21.668c16.431,11.678 24.42,29.162 24.42,29.162c1.216,-12.231 -1.054,-22.948 -4.121,-31.353c11.065,10.7 16.49,22.536 16.49,22.536c0.9,-9.051 -0.114,-17.281 -1.937,-24.363c7.979,9.149 11.927,17.724 11.927,17.724c2.937,-29.584 -15.135,-50.96 -15.135,-50.96" style="fill:#282828;fill-rule:nonzero;"/><path d="M1625.07,646.723c0,53.684 -23.995,97.206 -53.594,97.206c-29.597,0 -53.591,-43.522 -53.591,-97.206c0,-53.683 23.994,-97.205 53.591,-97.205c29.599,0 53.594,43.522 53.594,97.205" style="fill:#fff;fill-rule:nonzero;"/><ellipse cx="1571.79" cy="479.571" rx="174.167" ry="163.063" style="fill:#282828;"/><path d="M1571.23,432.957c89.592,0 162.33,-42.247 162.33,47.346c0,89.593 -72.738,162.331 -162.33,162.331c-89.593,0 -162.331,-72.738 -162.331,-162.331c0,-89.593 72.738,-47.346 162.331,-47.346Z" style="fill:#282828;"/><path d="M1404.52,489.845c16.012,-5.08 34.511,8.128 41.285,29.478c6.773,21.349 -0.727,42.807 -16.739,47.887c-16.012,5.08 -34.511,-8.128 -41.285,-29.478c-6.774,-21.349 0.727,-42.807 16.739,-47.887Z" style="fill:#282828;"/><path d="M1740.2,490.972c-16.012,-5.08 -34.511,8.129 -41.285,29.478c-6.774,21.35 0.727,42.807 16.739,47.887c16.012,5.08 34.511,-8.128 41.285,-29.477c6.773,-21.35 -0.727,-42.807 -16.739,-47.888Z" style="fill:#282828;"/><path d="M1521.4,520.886c0,15.814 -12.82,28.632 -28.632,28.632c-15.814,0 -28.634,-12.818 -28.634,-28.632c0,-15.814 12.82,-28.632 28.634,-28.632c15.812,0 28.632,12.818 28.632,28.632" style="fill:#808080;fill-rule:nonzero;"/><path d="M1517.12,521.674c0,13.511 -10.952,24.462 -24.461,24.462c-13.511,0 -24.463,-10.951 -24.463,-24.462c0,-13.51 10.952,-24.461 24.463,-24.461c13.509,0 24.461,10.951 24.461,24.461" style="fill:#484848;fill-rule:nonzero;"/><path d="M1472.03,508.486c-6.091,25.828 18.227,33.822 41.147,24.374c-0.832,-23.133 -19.364,-25.408 -41.147,-24.374Z"/><circle cx="1480.6" cy="518.744" r="2.931" style="fill:#fff;"/><path d="M1625.57,520.886c0,15.814 12.82,28.632 28.633,28.632c15.813,0 28.633,-12.818 28.633,-28.632c0,-15.814 -12.82,-28.632 -28.633,-28.632c-15.813,0 -28.633,12.818 -28.633,28.632" style="fill:#808080;fill-rule:nonzero;"/><path d="M1629.85,521.674c0,13.511 10.952,24.462 24.462,24.462c13.51,0 24.463,-10.951 24.463,-24.462c0,-13.51 -10.953,-24.461 -24.463,-24.461c-13.51,0 -24.462,10.951 -24.462,24.461" style="fill:#484848;fill-rule:nonzero;"/><path d="M1674.94,508.486c6.092,25.828 -18.226,33.822 -41.146,24.374c0.831,-23.133 19.363,-25.408 41.146,-24.374Z"/><circle cx="1666.38" cy="518.744" r="2.931" style="fill:#fff;"/><path d="M1442.16,431.266c-6.534,-5.038 1.141,-13.829 19.206,-25.365l0,25.365l-19.206,0Z" style="fill:#282828;"/><path d="M1571.23,327.611c0.377,-0.003 0.756,-0.004 1.134,-0.004c83.074,0 151.656,62.537 161.196,143.062c-11.418,-61.43 -79.035,-26.387 -160.632,-26.387c-0.567,0 -1.133,-0.002 -1.698,-0.006c-0.567,0.004 -1.132,0.006 -1.699,0.006c-81.597,0 -149.214,-35.043 -160.632,26.387c9.54,-80.525 78.122,-143.062 161.196,-143.062c0.379,0 0.757,0.001 1.135,0.004Z" style="fill:#fff;"/><path d="M1450.61,437.635c0.039,-10.25 5.911,-19.667 16.909,-28.352c-4.759,12.073 1.315,23.312 16.91,33.819l-33.819,-5.467Z" style="fill:#282828;"/><path d="M1527.61,348.44c-4.777,-11.598 -1.93,-29.495 14.295,-41.666c-1.306,16.555 7.69,28.01 35.586,30.291l-49.881,11.375Z" style="fill:#fff;"/><path d="M1547.18,348.676c1.335,-16.387 11.818,-30.722 30.341,-43.255c-9.048,18.72 -0.811,37.442 22.618,56.166l-52.959,-12.911Z" style="fill:#fff;"/><path d="M1540.23,460.856c0.039,-18.397 5.911,-35.298 16.909,-50.884c-4.759,21.667 1.315,41.839 16.91,60.697l-33.819,-9.813Z" style="fill:#282828;"/><path d="M1670.43,443.386c-0.039,-12.329 -5.911,-23.656 -16.91,-34.103c4.759,14.522 -1.314,28.041 -16.909,40.68l33.819,-6.577Z" style="fill:#282828;"/><path d="M1518.25,451.162c-0.039,-10.25 -5.911,-19.667 -16.91,-28.351c4.759,12.073 -1.315,23.312 -16.909,33.819l33.819,-5.468Z" style="fill:#282828;"/><path d="M1690.89,449.794c1.604,-11.311 -3.853,-22.714 -15.515,-34.198c3.708,14.139 -5.314,25.482 -25.523,34.367l41.038,-0.169Z" style="fill:#282828;"/><path d="M1540.23,452.593c-0.051,-11.532 -7.684,-22.126 -21.982,-31.896c6.186,13.582 -1.709,26.226 -21.983,38.047l43.965,-6.151Z" style="fill:#282828;"/><path d="M1727.92,458.321c-0.039,-10.25 -22.82,-33.589 -33.819,-42.274c7.821,12.073 14.074,38.531 -5.073,49.038l38.892,-6.764Z" style="fill:#282828;"/><circle cx="1572.36" cy="570.543" r="37.724" style="fill:#fff;"/><path d="M1524.25,330.573c0.316,-12.773 8.185,-22.614 22.931,-35.387c-4.132,10.807 -4.26,21.614 6.045,32.421l20.434,-30.617l3.833,27.46" style="fill:none;stroke:#282828;stroke-width:7px;"/><path d="M1599.43,572.94c0,-7.331 -7.052,9.133 -14.267,10.034c-4.921,0.613 10.912,-12.128 -12.806,-12.426c-22.366,-0.281 -8.097,11.671 -12.826,11.595c-7.298,-0.118 -14.247,-16.683 -14.247,-9.203c0,12.328 12.12,27.505 27.073,27.505c14.951,0 27.073,-15.177 27.073,-27.505" style="fill:#7d6147;fill-rule:nonzero;"/></g></g><g id="Layer2"></g></svg>