<?xml version="1.0" encoding="UTF-8" standalone="no"?><!DOCTYPE svg PUBLIC "-//W3C//DTD SVG 1.1//EN" "http://www.w3.org/Graphics/SVG/1.1/DTD/svg11.dtd"><svg width="100%" height="100%" viewBox="0 0 1920 1080" version="1.1" xmlns="http://www.w3.org/2000/svg" xmlns:xlink="http://www.w3.org/1999/xlink" xml:space="preserve" xmlns:serif="http://www.serif.com/" style="fill-rule:evenodd;clip-rule:evenodd;stroke-linecap:round;stroke-linejoin:round;stroke-miterlimit:1.5;"><g id="Layer1"><g><g><rect x="0" y="0" width="1920" height="1080" style="fill:#929292;"/></g><path d="M0,749.159c62.724,11.22 918.309,211.223 1169.49,119.289c188.39,-68.952 318.996,-143.637 486.499,-86.754c189.626,64.396 12.448,3.994 264.011,92.249l0,206.057l-1920,0" style="fill:#575463;"/><g><g><path d="M1723.36,792.018l-0.013,0.005c-58.322,-80.568 -103.514,-110.204 -103.514,-110.204l-99.911,-12.455l-99.913,12.455c0,0 -45.205,29.646 -103.539,110.241l-0.013,-0.005c0,0 -1.481,1.779 -3.565,4.968c-0.03,0.042 -0.06,0.082 -0.09,0.124l0.008,0.005c-5.799,8.901 -16.246,28.795 -13.758,53.84c0,0 4.566,-9.923 13.802,-20.512c-2.111,8.197 -3.283,17.72 -2.243,28.195c0,0 6.281,-13.696 19.083,-26.081c-3.546,9.73 -6.174,22.13 -4.767,36.284c0,0 9.243,-20.233 28.261,-33.748c-0.628,17.45 -8.417,25.076 -8.417,25.076c29.12,-4.576 34.363,-25.562 34.398,-25.703c2.608,-6.239 13.023,-29.205 28.725,-38.996c10.551,-6.581 23.376,4.119 18.904,15.722c-9.861,25.594 -26.713,110.939 -29.212,162.158l72.424,0c0,0 8.504,-69.845 49.912,-69.845c41.406,0 49.91,69.845 49.91,69.845l72.424,0c-2.499,-51.219 -19.351,-136.564 -29.212,-162.158c-4.472,-11.603 8.352,-22.303 18.904,-15.722c16.449,10.258 27.09,34.956 29.038,39.745c1.225,3.75 8.188,20.872 34.169,24.954c0,0 -7.792,-7.626 -8.417,-25.076c19.016,13.515 28.262,33.748 28.262,33.748c1.406,-14.154 -1.221,-26.556 -4.77,-36.284c12.804,12.383 19.083,26.081 19.083,26.081c1.042,-10.475 -0.132,-19.998 -2.241,-28.195c9.233,10.589 13.802,20.512 13.802,20.512c3.399,-34.237 -17.514,-58.974 -17.514,-58.974" style="fill:#282828;fill-rule:nonzero;"/><path d="M1582.26,734.96c0,62.126 -27.767,112.492 -62.022,112.492c-34.251,0 -62.019,-50.366 -62.019,-112.492c0,-62.126 27.768,-112.492 62.019,-112.492c34.255,0 62.022,50.366 62.022,112.492" style="fill:#fff;fill-rule:nonzero;"/><ellipse cx="1520.61" cy="541.521" rx="201.557" ry="188.707" style="fill:#282828;"/><path d="M1519.96,487.576c103.682,0 187.859,-48.89 187.859,54.792c0,103.683 -84.177,187.86 -187.859,187.86c-103.683,0 -187.86,-84.177 -187.86,-187.86c0,-103.682 84.177,-54.792 187.86,-54.792Z" style="fill:#282828;"/><path d="M1327.03,553.411c18.531,-5.879 39.939,9.407 47.778,34.114c7.839,24.706 -0.841,49.538 -19.372,55.418c-18.53,5.879 -39.938,-9.407 -47.777,-34.114c-7.839,-24.707 0.841,-49.539 19.371,-55.418Z" style="fill:#282828;"/><path d="M1715.5,554.716c-18.53,-5.879 -39.938,9.406 -47.777,34.113c-7.839,24.707 0.841,49.539 19.371,55.418c18.53,5.879 39.939,-9.407 47.777,-34.113c7.839,-24.707 -0.841,-49.539 -19.371,-55.418Z" style="fill:#282828;"/><path d="M1462.29,589.333c0,18.301 -14.836,33.135 -33.135,33.135c-18.301,0 -33.136,-14.834 -33.136,-33.135c0,-18.3 14.835,-33.135 33.136,-33.135c18.299,0 33.135,14.835 33.135,33.135" style="fill:#808080;fill-rule:nonzero;"/><path d="M1457.34,590.246c0,15.635 -12.675,28.309 -28.309,28.309c-15.635,0 -28.31,-12.674 -28.31,-28.309c0,-15.635 12.675,-28.309 28.31,-28.309c15.634,0 28.309,12.674 28.309,28.309" style="fill:#484848;fill-rule:nonzero;"/><path d="M1405.15,574.983c-7.05,29.891 21.092,39.141 47.617,28.207c-0.963,-26.771 -22.409,-29.403 -47.617,-28.207Z"/><circle cx="1415.07" cy="586.854" r="3.392" style="fill:#fff;"/><path d="M1582.84,589.333c0,18.301 14.835,33.135 33.135,33.135c18.3,0 33.136,-14.834 33.136,-33.135c0,-18.3 -14.836,-33.135 -33.136,-33.135c-18.3,0 -33.135,14.835 -33.135,33.135" style="fill:#808080;fill-rule:nonzero;"/><path d="M1587.8,590.246c0,15.635 12.674,28.309 28.308,28.309c15.635,0 28.31,-12.674 28.31,-28.309c0,-15.635 -12.675,-28.309 -28.31,-28.309c-15.634,0 -28.308,12.674 -28.308,28.309" style="fill:#484848;fill-rule:nonzero;"/><path d="M1639.98,574.983c7.05,29.891 -21.093,39.141 -47.617,28.207c0.962,-26.771 22.408,-29.403 47.617,-28.207Z"/><circle cx="1630.06" cy="586.854" r="3.392" style="fill:#fff;"/><path d="M1370.59,485.619c-7.562,-5.83 1.32,-16.003 22.226,-29.353l0,29.353l-22.226,0Z" style="fill:#282828;"/><path d="M1519.96,365.663c0.437,-0.003 0.875,-0.004 1.313,-0.004c96.137,0 175.505,72.372 186.546,165.56c-13.214,-71.09 -91.464,-30.536 -185.894,-30.536c-0.656,0 -1.311,-0.002 -1.965,-0.007c-0.655,0.005 -1.31,0.007 -1.966,0.007c-94.43,0 -172.68,-40.554 -185.894,30.536c11.041,-93.188 90.409,-165.56 186.547,-165.56c0.438,0 0.875,0.001 1.313,0.004Z" style="fill:#fff;"/><path d="M1380.37,492.99c0.045,-11.862 6.84,-22.76 19.568,-32.81c-5.507,13.971 1.522,26.978 19.569,39.137l-39.137,-6.327Z" style="fill:#282828;"/><path d="M1469.48,389.768c-5.529,-13.421 -2.234,-34.133 16.543,-48.219c-1.512,19.16 8.899,32.416 41.182,35.056l-57.725,13.163Z" style="fill:#fff;"/><path d="M1492.13,390.042c1.545,-18.964 13.676,-35.554 35.113,-50.058c-10.471,21.664 -0.939,43.33 26.175,64.998l-61.288,-14.94Z" style="fill:#fff;"/><path d="M1484.08,519.863c0.045,-21.29 6.84,-40.848 19.568,-58.886c-5.507,25.075 1.522,48.419 19.569,70.242l-39.137,-11.356Z" style="fill:#282828;"/><path d="M1634.76,499.646c-0.045,-14.269 -6.841,-27.377 -19.569,-39.466c5.507,16.805 -1.522,32.451 -19.569,47.077l39.138,-7.611Z" style="fill:#282828;"/><path d="M1458.64,508.645c-0.044,-11.862 -6.84,-22.76 -19.568,-32.81c5.507,13.971 -1.522,26.978 -19.569,39.137l39.137,-6.327Z" style="fill:#282828;"/><path d="M1658.43,507.062c1.856,-13.09 -4.458,-26.287 -17.954,-39.577c4.29,16.363 -6.15,29.49 -29.537,39.772l47.491,-0.195Z" style="fill:#282828;"/><path d="M1484.08,510.3c-0.059,-13.345 -8.893,-25.605 -25.44,-36.911c7.16,15.717 -1.977,30.35 -25.439,44.029l50.879,-7.118Z" style="fill:#282828;"/><path d="M1701.29,516.929c-0.045,-11.862 -26.409,-38.871 -39.137,-48.922c9.05,13.972 16.287,44.59 -5.871,56.75l45.008,-7.828Z" style="fill:#282828;"/><circle cx="1521.26" cy="646.8" r="43.656" style="fill:#fff;"/><path d="M1465.59,369.091c0.366,-14.781 9.473,-26.17 26.537,-40.951c-4.781,12.506 -4.929,25.012 6.996,37.519l23.648,-35.432l4.435,31.779" style="fill:none;stroke:#282828;stroke-width:7px;"/><path d="M1552.59,649.573c0,-8.483 -8.161,10.57 -16.511,11.612c-5.695,0.71 12.628,-14.035 -14.82,-14.38c-25.884,-0.325 -9.37,13.507 -14.842,13.419c-8.446,-0.136 -16.488,-19.307 -16.488,-10.651c0,14.268 14.026,31.831 31.33,31.831c17.303,0 31.331,-17.563 31.331,-31.831" style="fill:#7d6147;fill-rule:nonzero;"/></g><path d="M1520.24,760.732c7.19,-10.246 21.57,-10.246 28.76,-5.123c7.19,5.123 7.19,15.369 0,25.614c-5.033,7.685 -17.975,15.369 -28.76,20.492c-10.785,-5.123 -23.727,-12.807 -28.76,-20.492c-7.19,-10.245 -7.19,-20.491 0,-25.614c7.19,-5.123 21.57,-5.123 28.76,5.123Z" style="fill:#d1335b;"/></g></g></g><g id="Layer2"></g></svg>