<?xml version="1.0" encoding="UTF-8" standalone="no"?><!DOCTYPE svg PUBLIC "-//W3C//DTD SVG 1.1//EN" "http://www.w3.org/Graphics/SVG/1.1/DTD/svg11.dtd"><svg width="100%" height="100%" viewBox="0 0 1920 1080" version="1.1" xmlns="http://www.w3.org/2000/svg" xmlns:xlink="http://www.w3.org/1999/xlink" xml:space="preserve" xmlns:serif="http://www.serif.com/" style="fill-rule:evenodd;clip-rule:evenodd;stroke-linecap:round;stroke-linejoin:round;stroke-miterlimit:1.5;"><g id="Layer1"><g><g><rect x="0" y="0" width="1920" height="1080" style="fill:#929292;"/></g><g><path d="M1708.93,868.663l-0.014,0.006c-67.958,-93.88 -120.618,-128.413 -120.618,-128.413l-116.419,-14.512l-116.422,14.512c0,0 -52.673,34.544 -120.646,128.456l-0.014,-0.006c0,0 -1.727,2.074 -4.155,5.789c-0.035,0.049 -0.07,0.095 -0.105,0.145l0.009,0.005c-6.757,10.372 -18.93,33.553 -16.03,62.736c0,0 5.32,-11.562 16.082,-23.9c-2.46,9.55 -3.825,20.648 -2.614,32.852c0,0 7.319,-15.958 22.236,-30.389c-4.132,11.338 -7.194,25.786 -5.555,42.279c0,0 10.771,-23.577 32.931,-39.324c-0.731,20.333 -9.808,29.218 -9.808,29.218c33.932,-5.331 40.041,-29.784 40.082,-29.949c3.039,-7.269 15.174,-34.03 33.471,-45.44c12.295,-7.668 27.238,4.8 22.027,18.321c-11.49,29.822 -31.126,129.268 -34.038,188.951l84.39,0c0,0 9.909,-81.386 58.159,-81.386c48.247,0 58.156,81.386 58.156,81.386l84.39,0c-2.911,-59.683 -22.547,-159.129 -34.038,-188.951c-5.21,-13.521 9.733,-25.989 22.027,-18.321c19.168,11.954 31.566,40.732 33.836,46.313c1.429,4.369 9.542,24.32 39.816,29.076c0,0 -9.079,-8.885 -9.808,-29.218c22.157,15.747 32.931,39.324 32.931,39.324c1.639,-16.493 -1.423,-30.944 -5.558,-42.279c14.92,14.429 22.236,30.389 22.236,30.389c1.214,-12.204 -0.154,-23.302 -2.611,-32.852c10.759,12.338 16.082,23.9 16.082,23.9c3.961,-39.893 -20.408,-68.718 -20.408,-68.718" style="fill:#282828;fill-rule:nonzero;"/><path d="M1544.53,802.178c0,72.391 -32.356,131.079 -72.269,131.079c-39.911,0 -72.267,-58.688 -72.267,-131.079c0,-72.391 32.356,-131.079 72.267,-131.079c39.913,0 72.269,58.688 72.269,131.079" style="fill:#fff;fill-rule:nonzero;"/><ellipse cx="1472.69" cy="576.777" rx="234.86" ry="219.887" style="fill:#282828;"/><path d="M1471.93,513.919c120.814,0 218.899,-56.968 218.899,63.846c0,120.813 -98.085,218.899 -218.899,218.899c-120.813,0 -218.898,-98.086 -218.898,-218.899c0,-120.814 98.085,-63.846 218.898,-63.846Z" style="fill:#282828;"/><path d="M1247.12,590.632c21.592,-6.85 46.537,10.961 55.671,39.75c9.134,28.789 -0.98,57.724 -22.572,64.575c-21.592,6.85 -46.537,-10.961 -55.671,-39.75c-9.134,-28.79 0.98,-57.724 22.572,-64.575Z" style="fill:#282828;"/><path d="M1699.78,592.152c-21.592,-6.85 -46.537,10.961 -55.671,39.75c-9.134,28.789 0.98,57.724 22.572,64.575c21.592,6.85 46.537,-10.961 55.671,-39.75c9.134,-28.789 -0.98,-57.724 -22.572,-64.575Z" style="fill:#282828;"/><path d="M1404.74,632.49c0,21.324 -17.287,38.609 -38.61,38.609c-21.324,0 -38.611,-17.285 -38.611,-38.609c0,-21.325 17.287,-38.61 38.611,-38.61c21.323,0 38.61,17.285 38.61,38.61" style="fill:#808080;fill-rule:nonzero;"/><path d="M1398.96,633.553c0,18.218 -14.769,32.986 -32.986,32.986c-18.218,0 -32.987,-14.768 -32.987,-32.986c0,-18.218 14.769,-32.986 32.987,-32.986c18.217,0 32.986,14.768 32.986,32.986" style="fill:#484848;fill-rule:nonzero;"/><path d="M1338.16,615.768c-8.215,34.83 24.578,45.609 55.485,32.868c-1.122,-31.194 -26.112,-34.262 -55.485,-32.868Z"/><circle cx="1349.71" cy="629.601" r="3.952" style="fill:#fff;"/><path d="M1545.2,632.49c0,21.324 17.287,38.609 38.61,38.609c21.324,0 38.611,-17.285 38.611,-38.609c0,-21.325 -17.287,-38.61 -38.611,-38.61c-21.323,0 -38.61,17.285 -38.61,38.61" style="fill:#808080;fill-rule:nonzero;"/><path d="M1550.98,633.553c0,18.218 14.769,32.986 32.986,32.986c18.219,0 32.987,-14.768 32.987,-32.986c0,-18.218 -14.768,-32.986 -32.987,-32.986c-18.217,0 -32.986,14.768 -32.986,32.986" style="fill:#484848;fill-rule:nonzero;"/><path d="M1611.78,615.768c8.215,34.83 -24.577,45.609 -55.484,32.868c1.121,-31.194 26.111,-34.262 55.484,-32.868Z"/><circle cx="1600.23" cy="629.601" r="3.952" style="fill:#fff;"/><path d="M1297.88,511.639c-8.812,-6.793 1.538,-18.648 25.898,-34.203l0,34.203l-25.898,0Z" style="fill:#282828;"/><path d="M1471.93,371.863c0.51,-0.003 1.02,-0.005 1.53,-0.005c112.023,0 204.504,84.33 217.369,192.915c-15.397,-82.836 -106.576,-35.582 -216.609,-35.582c-0.764,0 -1.527,-0.002 -2.29,-0.007c-0.763,0.005 -1.526,0.007 -2.29,0.007c-110.032,0 -201.211,-47.254 -216.608,35.582c12.864,-108.585 105.346,-192.915 217.368,-192.915c0.511,0 1.021,0.002 1.53,0.005Z" style="fill:#fff;"/><path d="M1309.28,520.228c0.053,-13.822 7.971,-26.521 22.802,-38.231c-6.417,16.279 1.773,31.435 22.802,45.604l-45.604,-7.373Z" style="fill:#282828;"/><path d="M1413.11,399.951c-6.442,-15.639 -2.602,-39.773 19.277,-56.186c-1.762,22.325 10.37,37.771 47.987,40.848l-67.264,15.338Z" style="fill:#fff;"/><path d="M1439.5,400.269c1.8,-22.097 15.936,-41.428 40.915,-58.328c-12.201,25.243 -1.094,50.489 30.499,75.738l-71.414,-17.41Z" style="fill:#fff;"/><path d="M1430.13,551.541c0.052,-24.807 7.97,-47.598 22.802,-68.616c-6.418,29.218 1.772,56.42 22.802,81.848l-45.604,-13.232Z" style="fill:#282828;"/><path d="M1605.7,527.983c-0.053,-16.626 -7.971,-31.9 -22.802,-45.986c6.417,19.582 -1.773,37.812 -22.802,54.855l45.604,-8.869Z" style="fill:#282828;"/><path d="M1400.48,538.469c-0.052,-13.822 -7.97,-26.52 -22.802,-38.231c6.418,16.28 -1.773,31.436 -22.802,45.604l45.604,-7.373Z" style="fill:#282828;"/><path d="M1633.28,536.624c2.163,-15.252 -5.195,-30.629 -20.921,-46.115c5,19.066 -7.165,34.362 -34.416,46.343l55.337,-0.228Z" style="fill:#282828;"/><path d="M1430.13,540.398c-0.068,-15.55 -10.362,-29.835 -29.643,-43.01c8.343,18.315 -2.304,35.365 -29.642,51.304l59.285,-8.294Z" style="fill:#282828;"/><path d="M1683.23,548.122c-0.052,-13.822 -30.772,-45.294 -45.604,-57.005c10.546,16.28 18.979,51.958 -6.84,66.126l52.444,-9.121Z" style="fill:#282828;"/><circle cx="1473.45" cy="699.451" r="50.869" style="fill:#fff;"/><path d="M1408.58,375.858c0.426,-17.224 11.037,-30.495 30.921,-47.718c-5.571,14.572 -5.743,29.145 8.152,43.718l27.555,-41.286l5.169,37.029" style="fill:none;stroke:#282828;stroke-width:7px;"/><path d="M1509.96,702.683c0,-9.885 -9.51,12.317 -19.239,13.53c-6.636,0.828 14.714,-16.354 -17.269,-16.756c-30.16,-0.378 -10.918,15.739 -17.295,15.637c-9.841,-0.159 -19.212,-22.498 -19.212,-12.411c0,16.625 16.344,37.09 36.507,37.09c20.162,0 36.508,-20.465 36.508,-37.09" style="fill:#7d6147;fill-rule:nonzero;"/></g><path d="M1471.93,834.189c6.213,-8.853 18.639,-8.853 24.852,-4.426c6.213,4.426 6.213,13.28 0,22.133c-4.349,6.64 -15.532,13.28 -24.852,17.707c-9.319,-4.427 -20.502,-11.067 -24.852,-17.707c-6.212,-8.853 -6.212,-17.707 0,-22.133c6.213,-4.427 18.639,-4.427 24.852,4.426Z" style="fill:#d1335b;"/></g></g><g id="Layer2"></g></svg>