<?xml version="1.0" encoding="UTF-8" standalone="no"?><!DOCTYPE svg PUBLIC "-//W3C//DTD SVG 1.1//EN" "http://www.w3.org/Graphics/SVG/1.1/DTD/svg11.dtd"><svg width="100%" height="100%" viewBox="0 0 1920 1080" version="1.1" xmlns="http://www.w3.org/2000/svg" xmlns:xlink="http://www.w3.org/1999/xlink" xml:space="preserve" xmlns:serif="http://www.serif.com/" style="fill-rule:evenodd;clip-rule:evenodd;stroke-linecap:round;stroke-linejoin:round;stroke-miterlimit:1.5;"><g id="Layer1"><g><rect x="0" y="0" width="1920" height="1080" style="fill:#7ca7b9;"/></g><path d="M0,432.159c455.57,440.371 1036.25,486.565 1330.6,305.533c84.258,-51.821 187.026,-53.994 281.299,5.981c186.589,118.705 199.34,41.216 308.105,0l0,336.327l-1920,0l0,-647.841" style="fill:url(#_Linear1);"/><g><path d="M1737.84,705.181l-0.011,0.004c-50.396,-69.619 -89.447,-95.228 -89.447,-95.228l-86.334,-10.762l-86.336,10.762c0,0 -39.062,25.617 -89.469,95.26l-0.011,-0.004c0,0 -1.28,1.537 -3.081,4.293c-0.026,0.036 -0.052,0.071 -0.077,0.107l0.006,0.004c-5.011,7.692 -14.038,24.882 -11.888,46.524c0,0 3.946,-8.575 11.927,-17.724c-1.825,7.082 -2.837,15.312 -1.939,24.363c0,0 5.427,-11.834 16.49,-22.536c-3.065,8.407 -5.335,19.122 -4.12,31.353c0,0 7.988,-17.484 24.421,-29.162c-0.542,15.078 -7.273,21.668 -7.273,21.668c25.163,-3.954 29.694,-22.088 29.724,-22.21c2.253,-5.391 11.253,-25.236 24.821,-33.697c9.118,-5.687 20.199,3.559 16.335,13.586c-8.521,22.115 -23.083,95.863 -25.242,140.122l62.582,0c0,0 7.349,-60.354 43.13,-60.354c35.779,0 43.127,60.354 43.127,60.354l62.582,0c-2.159,-44.259 -16.721,-118.007 -25.242,-140.122c-3.864,-10.027 7.217,-19.273 16.335,-13.586c14.214,8.864 23.409,30.206 25.092,34.344c1.059,3.24 7.076,18.035 29.526,21.563c0,0 -6.733,-6.59 -7.273,-21.668c16.431,11.678 24.421,29.162 24.421,29.162c1.216,-12.231 -1.055,-22.948 -4.122,-31.353c11.065,10.699 16.49,22.536 16.49,22.536c0.9,-9.051 -0.114,-17.281 -1.937,-24.363c7.979,9.149 11.927,17.724 11.927,17.724c2.937,-29.584 -15.134,-50.96 -15.134,-50.96" style="fill:#282828;fill-rule:nonzero;"/><path d="M1615.91,655.877c0,53.683 -23.994,97.205 -53.593,97.205c-29.598,0 -53.592,-43.522 -53.592,-97.205c0,-53.683 23.994,-97.205 53.592,-97.205c29.599,0 53.593,43.522 53.593,97.205" style="fill:#fff;fill-rule:nonzero;"/><ellipse cx="1562.64" cy="488.724" rx="174.167" ry="163.063" style="fill:#282828;"/><path d="M1562.08,442.11c89.593,0 162.331,-42.246 162.331,47.347c0,89.593 -72.738,162.331 -162.331,162.331c-89.593,0 -162.331,-72.738 -162.331,-162.331c0,-89.593 72.738,-47.347 162.331,-47.347Z" style="fill:#282828;"/><path d="M1395.36,498.999c16.012,-5.08 34.511,8.128 41.285,29.478c6.774,21.349 -0.727,42.807 -16.739,47.887c-16.012,5.08 -34.511,-8.129 -41.285,-29.478c-6.773,-21.349 0.727,-42.807 16.739,-47.887Z" style="fill:#282828;"/><path d="M1731.04,500.126c-16.012,-5.08 -34.511,8.129 -41.285,29.478c-6.773,21.349 0.727,42.807 16.739,47.887c16.012,5.08 34.511,-8.128 41.285,-29.478c6.774,-21.349 -0.727,-42.807 -16.739,-47.887Z" style="fill:#282828;"/><path d="M1512.25,530.04c0,15.813 -12.819,28.632 -28.632,28.632c-15.814,0 -28.633,-12.819 -28.633,-28.632c0,-15.814 12.819,-28.633 28.633,-28.633c15.813,0 28.632,12.819 28.632,28.633" style="fill:#808080;fill-rule:nonzero;"/><path d="M1507.97,530.828c0,13.51 -10.953,24.462 -24.462,24.462c-13.511,0 -24.463,-10.952 -24.463,-24.462c0,-13.51 10.952,-24.462 24.463,-24.462c13.509,0 24.462,10.952 24.462,24.462" style="fill:#484848;fill-rule:nonzero;"/><path d="M1462.88,517.639c-6.092,25.829 18.226,33.823 41.146,24.374c-0.832,-23.133 -19.363,-25.407 -41.146,-24.374Z"/><circle cx="1471.44" cy="527.897" r="2.931" style="fill:#fff;"/><path d="M1616.41,530.04c0,15.813 12.819,28.632 28.632,28.632c15.814,0 28.633,-12.819 28.633,-28.632c0,-15.814 -12.819,-28.633 -28.633,-28.633c-15.813,0 -28.632,12.819 -28.632,28.633" style="fill:#808080;fill-rule:nonzero;"/><path d="M1620.7,530.828c0,13.51 10.953,24.462 24.462,24.462c13.51,0 24.463,-10.952 24.463,-24.462c0,-13.51 -10.953,-24.462 -24.463,-24.462c-13.509,0 -24.462,10.952 -24.462,24.462" style="fill:#484848;fill-rule:nonzero;"/><path d="M1665.79,517.639c6.092,25.829 -18.226,33.823 -41.146,24.374c0.832,-23.133 19.363,-25.407 41.146,-24.374Z"/><circle cx="1657.22" cy="527.897" r="2.931" style="fill:#fff;"/><path d="M1433.01,440.419c-6.535,-5.037 1.14,-13.828 19.205,-25.364l0,25.364l-19.205,0Z" style="fill:#282828;"/><path d="M1562.08,336.765c0.378,-0.003 0.756,-0.005 1.134,-0.005c83.074,0 151.656,62.538 161.197,143.063c-11.418,-61.43 -79.035,-26.387 -160.633,-26.387c-0.567,0 -1.133,-0.002 -1.698,-0.006c-0.566,0.004 -1.132,0.006 -1.698,0.006c-81.598,0 -149.215,-35.043 -160.633,26.387c9.54,-80.525 78.123,-143.063 161.196,-143.063c0.379,0 0.757,0.002 1.135,0.005Z" style="fill:#fff;"/><path d="M1441.46,446.789c0.039,-10.251 5.911,-19.667 16.909,-28.352c-4.759,12.073 1.315,23.312 16.91,33.819l-33.819,-5.467Z" style="fill:#282828;"/><path d="M1518.46,357.593c-4.777,-11.597 -1.93,-29.494 14.295,-41.666c-1.306,16.556 7.69,28.011 35.586,30.292l-49.881,11.374Z" style="fill:#fff;"/><path d="M1538.03,357.83c1.335,-16.387 11.818,-30.723 30.341,-43.255c-9.048,18.719 -0.811,37.441 22.618,56.165l-52.959,-12.91Z" style="fill:#fff;"/><path d="M1531.08,470.01c0.039,-18.397 5.911,-35.298 16.91,-50.884c-4.76,21.667 1.314,41.839 16.909,60.697l-33.819,-9.813Z" style="fill:#282828;"/><path d="M1661.28,452.54c-0.039,-12.33 -5.911,-23.657 -16.909,-34.103c4.759,14.522 -1.315,28.041 -16.91,40.679l33.819,-6.576Z" style="fill:#282828;"/><path d="M1509.09,460.316c-0.039,-10.25 -5.911,-19.667 -16.91,-28.351c4.76,12.072 -1.314,23.312 -16.909,33.819l33.819,-5.468Z" style="fill:#282828;"/><path d="M1681.73,458.948c1.604,-11.311 -3.853,-22.714 -15.515,-34.198c3.708,14.139 -5.313,25.482 -25.522,34.366l41.037,-0.168Z" style="fill:#282828;"/><path d="M1531.08,461.746c-0.05,-11.531 -7.684,-22.125 -21.982,-31.895c6.187,13.582 -1.709,26.226 -21.982,38.046l43.964,-6.151Z" style="fill:#282828;"/><path d="M1718.77,467.475c-0.039,-10.251 -22.82,-33.59 -33.819,-42.274c7.821,12.073 14.074,38.53 -5.073,49.037l38.892,-6.763Z" style="fill:#282828;"/><circle cx="1563.2" cy="579.697" r="37.724" style="fill:#fff;"/><path d="M1515.1,339.727c0.317,-12.773 8.186,-22.615 22.931,-35.387c-4.132,10.807 -4.259,21.614 6.046,32.42l20.434,-30.617l3.832,27.461" style="fill:none;stroke:#282828;stroke-width:7px;"/><path d="M1590.28,582.094c0,-7.331 -7.052,9.133 -14.267,10.033c-4.921,0.614 10.912,-12.127 -12.806,-12.425c-22.366,-0.281 -8.097,11.671 -12.826,11.595c-7.297,-0.118 -14.247,-16.684 -14.247,-9.203c0,12.328 12.12,27.505 27.073,27.505c14.952,0 27.073,-15.177 27.073,-27.505" style="fill:#7d6147;fill-rule:nonzero;"/></g></g><g id="Layer2"></g><defs><linearGradient id="_Linear1" x1="0" y1="0" x2="1" y2="0" gradientUnits="userSpaceOnUse" gradientTransform="matrix(1920,0,0,647.841,0,756.079)"><stop offset="0" style="stop-color:#fff;stop-opacity:1"/><stop offset="0.51" style="stop-color:#c0d6e0;stop-opacity:1"/><stop offset="1" style="stop-color:#aac8d5;stop-opacity:1"/></linearGradient></defs></svg>