<?xml version="1.0" encoding="UTF-8" standalone="no"?><!DOCTYPE svg PUBLIC "-//W3C//DTD SVG 1.1//EN" "http://www.w3.org/Graphics/SVG/1.1/DTD/svg11.dtd"><svg width="100%" height="100%" viewBox="0 0 768 512" version="1.1" xmlns="http://www.w3.org/2000/svg" xmlns:xlink="http://www.w3.org/1999/xlink" xml:space="preserve" xmlns:serif="http://www.serif.com/" style="fill-rule:evenodd;clip-rule:evenodd;stroke-linecap:round;stroke-miterlimit:10;"><g><rect x="0" y="0" width="768" height="512" style="fill:#9bbff9;"/><path d="M150.615,432.716c0,0 -45.021,-7.345 -39.54,-62.163c5.482,-54.819 21.505,-107.906 -0.463,-140.149c-32.299,-47.404 -9.372,-129.502 64.22,-120.266c73.591,9.234 104.309,26.943 145.415,-31.088c21.422,-30.242 54.117,-56.703 103.293,-37.802c49.176,18.901 47.916,66.534 74.377,74.849c26.462,8.315 111.972,-34.111 153.642,21.754c41.67,55.865 -3.766,100.303 -8.533,124.43c-4.768,24.127 15.618,56.707 25.98,100.548c10.362,43.839 -12.827,69.887 -12.827,69.887l-505.564,0Z" style="fill:#7b92db;fill-rule:nonzero;"/><path d="M141.051,135.873c0,0 -20.687,5.972 -24.891,33.511c-2.691,17.356 5.214,33.014 5.214,44.32c0,11.306 -10.091,23.752 -12.782,41.579c-2.691,17.828 3.868,27.077 19.845,33.637c15.978,6.559 58.528,0.672 67.105,-7.232c8.578,-7.905 18.501,-20.855 16.818,-50.96c-1.176,-13.959 -12.632,-31.865 -16.827,-46.542c-4.195,-14.677 -8.231,-30.822 -19.331,-39.904c-11.1,-9.082 -20.014,-11.773 -35.151,-8.409" style="fill:#23003f;fill-rule:nonzero;"/><path d="M133.689,194.798c0,0 6.194,22.715 18.584,28.909c12.39,6.195 26.731,2.48 30.768,-8.283c4.036,-10.764 3.139,-27.134 2.242,-36.328c0,0 -23.097,-4.26 -33.412,-20.406c0,0 -4.709,28.703 -18.182,36.108" style="fill:#ffd9c0;fill-rule:nonzero;"/><path d="M193.04,178.364c-2.949,-3.26 -6.891,0.813 -7.669,1.683c0.497,5.376 0.935,12.827 0.478,20.186c1.514,-0.057 4.403,-0.677 7.192,-4.126c4.028,-4.981 3.285,-14.112 -0.001,-17.743" style="fill:#ffd9c0;fill-rule:nonzero;"/><path d="M133.689,194.798c0,0 -6.485,-2.92 -7.83,1.789c-1.346,4.71 2.018,13.23 7.83,15.922c3.825,1.77 6.597,1.21 8.051,0.62c-5.367,-8.493 -8.051,-18.331 -8.051,-18.331" style="fill:#ffd9c0;fill-rule:nonzero;"/><path d="M128.549,170.127c1.795,-13.007 13.903,-22.649 28.031,-22.649c12.532,0 22.765,8.645 26.482,15.451c-4.891,-12.796 -10.201,-19.086 -18.745,-21.794c-13.005,-4.122 -29.264,0.064 -35.439,13.295c-6.174,13.229 0,32.309 0,32.31c-0.723,-4.318 -1.213,-10.2 -0.329,-16.613" style="fill:#ebeef7;fill-rule:nonzero;"/><path d="M151.99,196.444c0.704,2.365 0.194,4.604 -1.141,5.003c-1.335,0.397 -2.989,-1.196 -3.694,-3.561c-0.705,-2.364 -0.194,-4.604 1.141,-5.002c1.335,-0.398 2.989,1.196 3.694,3.56" style="fill:#23003f;fill-rule:nonzero;"/><path d="M174.873,189.622c0.704,2.364 0.194,4.604 -1.141,5.002c-1.335,0.398 -2.989,-1.196 -3.694,-3.56c-0.705,-2.365 -0.194,-4.604 1.141,-5.002c1.336,-0.399 2.989,1.196 3.694,3.56" style="fill:#23003f;fill-rule:nonzero;"/><path d="M160.953,188.676c0,0 0.673,4.436 3.587,8.023c2.916,3.588 4.037,8.97 -1.233,10.652" style="fill:none;fill-rule:nonzero;stroke:#cc967a;stroke-width:4.17px;"/><path d="M157.66,215.648c0,0 7.441,5.381 12.711,-1.458" style="fill:none;fill-rule:nonzero;stroke:#cc967a;stroke-width:4.17px;"/><path d="M144.023,191.318c0,0 -0.449,-4.261 3.812,-5.607" style="fill:none;fill-rule:nonzero;stroke:#23003f;stroke-width:4.17px;"/><path d="M168.016,179.433c0,0 4.821,-1.009 7.288,2.354" style="fill:none;fill-rule:nonzero;stroke:#23003f;stroke-width:4.17px;"/><path d="M227.18,337.013c-0.33,0.226 -1.12,0.766 -2.879,1.969c-18.387,9.643 -56.284,9.194 -57.307,5.83c0,0 -2.902,10.876 -8.283,20.631c-5.382,9.754 -15.341,42.382 -11.3,67.273l48.415,0c0,0 3.585,-17.491 7.957,-25.564c0,0 9.615,17.512 11.601,25.564l41.629,0c0,0 -9.464,-47.105 -29.833,-95.703" style="fill:#0d3254;fill-rule:nonzero;"/><path d="M160.277,226.329l3.696,15.555c0,0 11.038,4.261 19.089,-3.139l-4.792,-16.613c-4.536,3.801 -11.172,5.346 -17.993,4.197" style="fill:#ffd9c0;fill-rule:nonzero;"/><path d="M163.973,241.884c0,0 -4.029,-0.448 -3.02,3.813l1.009,4.26c0,0 -14.881,7.625 -20.222,12.334c-5.342,4.709 -7.136,6.279 -7.136,6.279c0,0 8.521,3.138 12.782,17.042c4.26,13.903 4.485,20.406 4.485,20.406c0,0 7.848,5.831 10.315,18.837c2.467,13.006 3.785,16.594 4.808,19.957c1.023,3.364 38.92,3.813 57.308,-5.83c4.261,-2.915 2.877,-1.969 2.877,-1.969c0,0 -4.447,-21.577 -2.653,-39.516c1.566,-15.659 0,-29.825 -15.697,-44.625c-5.382,-6.727 -9.194,-9.767 -9.194,-9.767l-12.446,0c0,0 -1.081,-8.328 -4.521,-5.727l0.394,1.367c0,0 -7.679,6.691 -19.089,3.139" style="fill:#ebeef7;fill-rule:nonzero;"/><path d="M256.972,262.712l-1.434,5.685l0.717,5.53l-13.662,0l0,-10.71l4.898,-4.06l9.481,3.555Z" style="fill:#eeb8a9;fill-rule:nonzero;"/><path d="M258.162,302.879l0,-28.928l-17.49,-0.224l-2.019,18.206c0,0 -9.866,-31.212 -16.369,-40.406c-6.504,-9.194 -22.649,-8.422 -22.649,-8.422c0,0 3.812,3.04 9.194,9.768c15.697,14.799 17.263,28.965 15.697,44.624c-0.324,3.242 -0.442,6.603 -0.422,9.935c2.984,4.364 7.243,10.715 10.513,16.077c5.606,9.194 13.455,8.746 19.285,4.709c5.83,-4.036 4.26,-17.042 4.26,-25.339" style="fill:#ebeef7;fill-rule:nonzero;"/><path d="M217.067,348.394c0,0.774 -0.628,1.401 -1.402,1.401c-0.774,0 -1.401,-0.627 -1.401,-1.401c0,-0.775 0.627,-1.402 1.401,-1.402c0.774,0 1.402,0.627 1.402,1.402" style="fill:#071e2b;fill-rule:nonzero;"/><path d="M208.175,344.339c0.508,1.311 0.902,2.66 1.317,4.004c0.372,1.354 0.719,2.716 1.043,4.084c0.651,2.736 1.13,5.51 1.508,8.297c0.363,2.789 0.634,5.592 0.703,8.405c0.116,2.809 0.036,5.626 -0.197,8.423c-0.125,-1.403 -0.13,-2.801 -0.268,-4.196c-0.085,-1.396 -0.175,-2.789 -0.32,-4.179c-0.255,-2.78 -0.549,-5.554 -0.932,-8.318c-0.35,-2.768 -0.799,-5.522 -1.263,-8.277c-0.474,-2.753 -1.009,-5.496 -1.591,-8.243" style="fill:#64628e;fill-rule:nonzero;"/><path d="M203.783,407.152c0.126,-0.995 0.414,-1.953 0.766,-2.88c0.346,-0.932 0.79,-1.823 1.278,-2.687c0.995,-1.715 2.246,-3.316 3.843,-4.523c-0.478,0.883 -1.004,1.695 -1.493,2.535c-0.492,0.833 -0.992,1.657 -1.464,2.499c-0.978,1.665 -1.89,3.356 -2.93,5.056" style="fill:#64628e;fill-rule:nonzero;"/><path d="M151.871,306.018c-0.694,-2.156 -1.298,-4.296 -1.806,-6.476c-0.494,-2.18 -0.947,-4.372 -1.109,-6.643c0.95,2.069 1.581,4.227 2.105,6.412c0.243,1.097 0.469,2.199 0.617,3.317c0.149,1.116 0.271,2.248 0.193,3.39" style="fill:#64628e;fill-rule:nonzero;"/><path d="M224.104,307.432c0.163,-1.947 0.307,-3.891 0.38,-5.839c0.103,-1.944 0.167,-3.89 0.183,-5.835c0.029,-3.887 -0.013,-7.784 -0.385,-11.639c-0.294,-3.859 -1.042,-7.673 -2.186,-11.365c-1.162,-3.686 -2.82,-7.228 -5.029,-10.452c1.277,1.481 2.373,3.118 3.35,4.824c0.945,1.723 1.746,3.527 2.425,5.376c1.323,3.713 2.08,7.612 2.459,11.527c0.292,3.921 0.347,7.84 0.15,11.753c-0.216,3.909 -0.596,7.811 -1.347,11.65" style="fill:#64628e;fill-rule:nonzero;"/><path d="M238.654,291.933c0.043,3.118 -0.085,6.193 -0.132,9.269c-0.029,1.536 -0.055,3.072 -0.038,4.607c0.029,1.535 0.048,3.07 0.17,4.626c-1.015,-2.97 -1.19,-6.153 -1.155,-9.253c0.08,-3.112 0.397,-6.219 1.155,-9.249" style="fill:#64628e;fill-rule:nonzero;"/><path d="M179.578,226.665l-1.308,-4.533c-4.536,3.801 -11.173,5.346 -17.993,4.197l1.021,4.296c6.9,1.017 13.576,-0.433 18.28,-3.96" style="fill:#eeb8a9;fill-rule:nonzero;"/><path d="M537.568,264.489c-5.381,-30.765 -9.418,-39.647 -15.697,-44.581c-6.279,-4.934 -30.613,-16.594 -30.613,-16.594l-22.24,0l-5.08,0l-22.24,0c0,0 -24.334,11.66 -30.614,16.594c-6.278,4.934 -10.314,13.816 -15.696,44.581c-5.383,30.766 1.346,52.293 12.109,50.947l10.764,-1.346l-2.691,38.214l101.816,0l-2.691,-38.214l10.764,1.346c10.764,1.346 17.491,-20.181 12.109,-50.947" style="fill:#373167;fill-rule:nonzero;"/><path d="M436.11,120.792c0,0 -2.152,34.758 10.181,52.698c12.334,17.939 34.31,10.54 41.261,0.897c6.952,-9.642 9.643,-34.31 7.176,-52.698c0,0 -17.267,3.364 -27.806,-10.763c0,0 -14.308,10.988 -30.812,9.866" style="fill:#cc6f4c;fill-rule:nonzero;"/><path d="M494.728,121.689c0.92,6.859 1.114,14.588 0.645,22.088c0.506,-0.632 0.818,-1.002 0.818,-1.002c0,0 3.073,-1.124 5.687,0.768c1.755,-4.561 5.529,-15.736 5.184,-26.786c-0.449,-14.352 -10.091,-18.389 -17.043,-16.147c0,0 -8.082,-13.23 -24.223,-12.333c-16.141,0.897 -31.838,10.315 -31.838,10.315c0,0 -8.745,-2.242 -10.764,4.037c-2.018,6.279 0.717,15.024 12.916,18.163c16.504,1.122 30.812,-9.866 30.812,-9.866c6.32,8.471 15.055,10.651 21.039,11.041c4.15,-0.151 6.767,-0.278 6.767,-0.278" style="fill:#433832;fill-rule:nonzero;"/><path d="M436.815,142.775l0.004,0.005c-1.322,-12.017 -0.709,-21.987 -0.709,-21.987c-2.444,-0.63 -4.492,-1.491 -6.214,-2.505l-0.009,0.007c0,0 -4.386,8.325 0.971,25.451c2.667,-2.179 5.957,-0.971 5.957,-0.971" style="fill:#433832;fill-rule:nonzero;"/><path d="M436.816,142.777l-0.001,-0.001c0,0 -4.875,-1.802 -7.566,2.908c-2.691,4.709 -0.897,19.073 12.446,18.842l0.003,0c-2.648,-6.882 -4.104,-14.667 -4.882,-21.749" style="fill:#cc6f4c;fill-rule:nonzero;"/><path d="M503.757,145.684c-2.691,-4.709 -7.566,-2.909 -7.566,-2.909c0,0 -0.308,0.365 -0.809,0.991c-0.469,7.521 -1.613,14.807 -3.384,20.749c12.71,-0.272 14.403,-14.205 11.759,-18.831" style="fill:#cc6f4c;fill-rule:nonzero;"/><path d="M482.395,157.191c-6.503,0.296 -12.394,3.934 -17.557,2.14c-5.162,-1.794 -10.025,-3.108 -15.856,-2.211c-5.336,0.821 -10.284,-5.668 -11.086,-6.776c1.472,8.297 4.019,16.78 8.395,23.146c12.334,17.94 34.31,10.539 41.261,0.896c3.28,-4.548 5.611,-12.444 6.899,-21.446c-2.207,1.342 -7.193,4.03 -12.056,4.251" style="fill:#433832;fill-rule:nonzero;"/><path d="M454.813,140.526c0,3.097 -1.356,5.606 -3.028,5.606c-1.671,0 -3.027,-2.509 -3.027,-5.606c0,-3.096 1.356,-5.606 3.027,-5.606c1.672,0 3.028,2.51 3.028,5.606" style="fill:#23003f;fill-rule:nonzero;"/><path d="M482.863,140.526c0,3.097 -1.355,5.606 -3.027,5.606c-1.672,0 -3.028,-2.509 -3.028,-5.606c0,-3.096 1.356,-5.606 3.028,-5.606c1.672,0 3.027,2.51 3.027,5.606" style="fill:#23003f;fill-rule:nonzero;"/><path d="M465.796,131.525c0,0 -3.359,14.127 -4.033,18.836c-0.671,4.709 4.411,5.606 4.411,5.606" style="fill:none;fill-rule:nonzero;stroke:#a55337;stroke-width:4.17px;"/><path d="M463.938,167.383c0,0 8.142,4.107 10.16,-2.854" style="fill:none;fill-rule:nonzero;stroke:#a55337;stroke-width:4.17px;"/><path d="M445.843,129.09c0,0 1.57,-5.607 8.97,-5.83" style="fill:none;fill-rule:nonzero;stroke:#433832;stroke-width:4.17px;"/><path d="M475.892,124.829c0,0 6.279,-0.406 8.969,6.188" style="fill:none;fill-rule:nonzero;stroke:#433832;stroke-width:4.17px;"/><path d="M476.808,182.297c-6.267,2.538 -13.9,3.148 -20.761,-0.176l-0.021,0.002l0,13.118l-3.232,5.831l14.576,26.013l12.466,-27.807l-3.028,-3.588l0,-13.393Z" style="fill:#cc6f4c;fill-rule:nonzero;"/><path d="M456.026,190.084c0,0 -11.969,2.018 -14.328,13.23c0,0 0.333,12.11 3.696,19.958c0,0 1.23,-15.479 11.043,-15.7l-3.643,-6.5l3.232,-5.83l0,-5.158Z" style="fill:#7173a3;fill-rule:nonzero;"/><path d="M476.808,195.69l3.028,3.588l-4.418,9.855c0,0 10.565,4.945 11.686,14.139c0,0 4.328,-9.364 3.655,-20.128c0.072,-4.709 -6.755,-12.667 -13.951,-11.77l0,4.316Z" style="fill:#7173a3;fill-rule:nonzero;"/><path d="M418.261,314.091c0.744,-0.476 1.405,-1.044 1.986,-1.69c0.599,-0.623 1.138,-1.299 1.646,-1.994c1.004,-1.398 1.87,-2.896 2.599,-4.464c0.778,-1.545 1.38,-3.175 2.008,-4.801l0.852,-2.481c0.277,-0.833 0.521,-1.676 0.83,-2.51c-0.082,0.881 -0.23,1.752 -0.344,2.633c-0.168,0.869 -0.369,1.733 -0.576,2.597c-0.247,0.853 -0.508,1.704 -0.804,2.543c-0.332,0.828 -0.64,1.666 -1.045,2.464c-0.771,1.611 -1.716,3.156 -2.897,4.514c-1.164,1.348 -2.574,2.584 -4.255,3.189" style="fill:#1e1c3f;fill-rule:nonzero;"/><path d="M428.182,250.406c-0.039,3.851 -0.233,7.695 -0.472,11.536c-0.24,3.842 -0.608,7.673 -0.966,11.506c-0.444,3.824 -0.903,7.649 -1.527,11.452c-0.642,3.794 -1.362,7.606 -2.626,11.251c0.184,-0.947 0.418,-1.877 0.587,-2.822c0.155,-0.949 0.336,-1.89 0.468,-2.841l0.427,-2.846l0.363,-2.856c0.462,-3.81 0.928,-7.621 1.291,-11.447c0.442,-3.814 0.794,-7.64 1.202,-11.462c0.401,-3.823 0.793,-7.648 1.253,-11.471" style="fill:#1e1c3f;fill-rule:nonzero;"/><path d="M514.84,314.091c-1.682,-0.605 -3.091,-1.841 -4.256,-3.189c-1.18,-1.358 -2.125,-2.903 -2.896,-4.514c-0.406,-0.798 -0.713,-1.637 -1.045,-2.464c-0.296,-0.839 -0.557,-1.69 -0.804,-2.543c-0.207,-0.864 -0.408,-1.728 -0.577,-2.597c-0.113,-0.881 -0.261,-1.752 -0.343,-2.633c0.309,0.834 0.553,1.677 0.83,2.51l0.852,2.481c0.628,1.626 1.23,3.256 2.008,4.801c0.728,1.568 1.595,3.065 2.599,4.464c0.507,0.695 1.046,1.371 1.646,1.994c0.581,0.646 1.242,1.214 1.986,1.69" style="fill:#1e1c3f;fill-rule:nonzero;"/><path d="M504.919,250.406c0.46,3.823 0.852,7.648 1.253,11.471c0.408,3.822 0.76,7.648 1.202,11.462c0.363,3.826 0.829,7.637 1.291,11.447l0.363,2.856l0.427,2.846c0.131,0.951 0.313,1.892 0.468,2.841c0.169,0.945 0.403,1.875 0.587,2.822c-1.264,-3.645 -1.985,-7.457 -2.625,-11.251c-0.625,-3.803 -1.085,-7.628 -1.528,-11.452c-0.358,-3.833 -0.726,-7.664 -0.966,-11.506c-0.238,-3.841 -0.433,-7.685 -0.472,-11.536" style="fill:#1e1c3f;fill-rule:nonzero;"/><path d="M467.37,227.084l0,21.977l6.279,0l0,-35.983l-6.279,14.006Z" style="fill:#1e1c3f;fill-rule:nonzero;"/><path d="M415.57,352.304c0,0 -4.485,42.739 -3.812,80.412l51.973,0l5.341,-22.231l4.577,22.231l48.438,0c0,0 0.018,-33.005 -4.701,-80.412l-101.816,0Z" style="fill:#a9553c;fill-rule:nonzero;"/><path d="M474.546,352.304c0.401,3.458 0.629,6.93 0.797,10.404c0.178,3.474 0.23,6.954 0.203,10.436c-0.052,3.48 -0.171,6.966 -0.547,10.437c-0.191,1.734 -0.417,3.467 -0.755,5.183c-0.384,1.695 -0.798,3.44 -1.716,4.934c0.706,-1.593 1.004,-3.306 1.221,-5.018c0.234,-1.711 0.37,-3.436 0.465,-5.163c0.188,-3.455 0.28,-6.919 0.309,-10.385c0.052,-3.465 0.027,-6.934 0.036,-10.405l-0.013,-10.423Z" style="fill:#873f2e;fill-rule:nonzero;"/><path d="M461.428,357.426c0,0.774 -0.628,1.402 -1.402,1.402c-0.774,0 -1.401,-0.628 -1.401,-1.402c0,-0.774 0.627,-1.401 1.401,-1.401c0.774,0 1.402,0.627 1.402,1.401" style="fill:#873f2e;fill-rule:nonzero;"/><path d="M424.316,352.304c0.088,2.753 -0.162,5.506 -0.554,8.235c-0.398,2.73 -1.007,5.435 -1.849,8.074c-0.882,2.624 -1.945,5.203 -3.377,7.587c-0.779,1.15 -1.489,2.347 -2.428,3.375c-0.867,1.083 -1.927,1.989 -2.961,2.885c0.878,-1.068 1.847,-2.024 2.564,-3.193c0.841,-1.067 1.461,-2.288 2.139,-3.454c1.236,-2.415 2.245,-4.934 3.089,-7.514c0.849,-2.58 1.475,-5.232 2.051,-7.896c0.291,-1.333 0.53,-2.678 0.736,-4.029c0.245,-1.348 0.418,-2.706 0.59,-4.07" style="fill:#873f2e;fill-rule:nonzero;"/><path d="M506.837,352.304l1.011,4.325c0.327,1.441 0.666,2.878 1.028,4.309c0.727,2.861 1.455,5.718 2.312,8.532c0.842,2.817 1.797,5.6 3,8.263c0.616,1.321 1.316,2.612 2.224,3.737c0.858,1.146 2.094,2.101 3.611,2.109c-0.733,0.091 -1.517,-0.021 -2.191,-0.39c-0.339,-0.17 -0.649,-0.397 -0.959,-0.618c-0.276,-0.256 -0.59,-0.485 -0.838,-0.77c-1.032,-1.114 -1.832,-2.402 -2.552,-3.716c-1.404,-2.653 -2.401,-5.478 -3.275,-8.32c-0.842,-2.854 -1.55,-5.741 -2.098,-8.658c-0.551,-2.915 -1.02,-5.846 -1.273,-8.803" style="fill:#873f2e;fill-rule:nonzero;"/><path d="M476.808,188.098l0,-5.801c-6.267,2.539 -13.9,3.148 -20.761,-0.177l-0.021,0.002l0,5.813c6.888,3.118 14.446,2.581 20.782,0.163" style="fill:#b55e43;fill-rule:nonzero;"/><path d="M620.842,134.92c0,0 -12.979,-5.606 -28.447,-1.234c-15.468,4.374 -20.514,25.689 -39.687,45.473c-19.173,19.782 -9.755,27.519 -4.372,30.547c5.381,3.027 9.418,4.708 12.782,11.1c3.363,6.391 11.1,10.772 24.891,10.263c13.791,-0.509 30.141,9.582 37.102,12.609c6.961,3.028 19.071,4.372 24.116,-2.354c5.046,-6.728 -2.018,-24.555 -2.018,-43.055c0,-18.5 5.648,-35.767 -5.922,-49.334c-11.569,-13.567 -18.445,-14.015 -18.445,-14.015" style="fill:#6e2a2c;fill-rule:nonzero;"/><path d="M631.162,182.64c0,0 -6.195,22.714 -18.584,28.908c-12.39,6.195 -26.732,2.48 -30.768,-8.283c-4.037,-10.764 -3.14,-27.134 -2.243,-36.328c0,0 23.098,-4.26 33.413,-20.406c0,0 4.709,28.703 18.182,36.109" style="fill:#ffd9c0;fill-rule:nonzero;"/><path d="M571.811,166.205c2.949,-3.26 6.891,0.813 7.668,1.683c-0.496,5.376 -0.934,12.827 -0.478,20.186c-1.514,-0.056 -4.402,-0.677 -7.192,-4.126c-4.027,-4.981 -3.284,-14.111 0.002,-17.743" style="fill:#ffd9c0;fill-rule:nonzero;"/><path d="M631.162,182.64c0,0 6.485,-2.921 7.829,1.788c1.347,4.71 -2.017,13.231 -7.829,15.922c-3.825,1.77 -6.597,1.21 -8.051,0.62c5.367,-8.493 8.051,-18.33 8.051,-18.33" style="fill:#ffd9c0;fill-rule:nonzero;"/><path d="M612.861,184.285c-0.704,2.365 -0.194,4.604 1.141,5.003c1.335,0.397 2.989,-1.196 3.694,-3.561c0.705,-2.364 0.194,-4.604 -1.141,-5.002c-1.336,-0.398 -2.989,1.196 -3.694,3.56" style="fill:#23003f;fill-rule:nonzero;"/><path d="M589.978,177.463c-0.705,2.364 -0.195,4.604 1.141,5.002c1.335,0.398 2.989,-1.196 3.694,-3.56c0.705,-2.365 0.194,-4.604 -1.142,-5.002c-1.335,-0.399 -2.99,1.196 -3.693,3.56" style="fill:#23003f;fill-rule:nonzero;"/><path d="M603.898,176.517c0,0 -0.673,4.436 -3.588,8.023c-2.915,3.588 -4.036,8.97 1.233,10.652" style="fill:none;fill-rule:nonzero;stroke:#cc967a;stroke-width:4.17px;stroke-linejoin:round;"/><path d="M607.191,203.489c0,0 -7.442,5.382 -12.711,-1.457" style="fill:none;fill-rule:nonzero;stroke:#cc967a;stroke-width:4.17px;stroke-linejoin:round;"/><path d="M620.828,179.159c0,0 0.448,-4.261 -3.812,-5.607" style="fill:none;fill-rule:nonzero;stroke:#6e2a2c;stroke-width:4.17px;stroke-linejoin:round;"/><path d="M596.834,167.273c0,0 -4.821,-1.008 -7.288,2.355" style="fill:none;fill-rule:nonzero;stroke:#6e2a2c;stroke-width:4.17px;stroke-linejoin:round;"/><path d="M615.278,232.242c-10.522,-3.277 -12.115,-3.364 -12.451,-6.391c-0.336,-3.028 0.014,-11.444 0.014,-11.444l-0.001,-0.001c-6.195,0.633 -12.1,-0.953 -16.251,-4.426c0,0 0.244,11.498 0,14.357c-0.244,2.86 -4.785,6.727 -15.044,10.259l-10.259,3.533c0,0 14.783,27.077 36.571,39.018c0,0 18.929,-15.305 30.702,-39.187c0,0 -2.598,-2.391 -13.281,-5.718" style="fill:#ffd9c0;fill-rule:nonzero;"/><path d="M627.213,268.065l1.346,-30.105c-11.773,23.882 -30.702,39.187 -30.702,39.187c-21.788,-11.941 -36.571,-39.019 -36.571,-39.019c0,0 -7.905,1.115 -11.437,5.436c-3.532,4.319 -6.106,18.278 -8.628,37.787c-2.523,19.51 -5.618,42.409 3.664,45.522c12.181,4.084 17.914,-25.677 17.914,-25.677l2.859,6.056c0,0 19.173,0.168 30.778,-12.278c0,0 15.977,13.203 24.218,15.179c0,0 5.887,-9.629 7.905,-19.383c2.018,-9.756 -1.346,-22.705 -1.346,-22.705" style="fill:#0d3254;fill-rule:nonzero;"/><path d="M565.658,307.252c0,0 2.86,16.481 4.654,24.33c0,0 25.787,5.382 44.624,0l5.718,-21.429c-8.241,-1.976 -24.218,-15.179 -24.218,-15.179c-11.605,12.446 -30.778,12.278 -30.778,12.278" style="fill:#ffd9c0;fill-rule:nonzero;"/><path d="M639.154,388.091c-5.257,-24.626 -24.218,-56.509 -24.218,-56.509c-18.837,5.382 -44.625,0 -44.625,0c-23.769,40.364 -17.378,101.134 -17.378,101.134l84.988,0c0,0 6.929,-17.939 1.233,-44.625" style="fill:#64628e;fill-rule:nonzero;"/><path d="M601.917,295.359c0,2.419 -1.961,4.38 -4.38,4.38c-2.419,0 -4.381,-1.961 -4.381,-4.38c0,-2.419 1.962,-4.381 4.381,-4.381c2.419,0 4.38,1.962 4.38,4.381" style="fill:#133e5e;fill-rule:nonzero;"/><path d="M595.482,295.951c0,0 -8.127,1.63 -11.204,8.189c-2.614,5.572 -0.624,8.83 2.656,7.905c3.279,-0.926 7.342,-6.877 8.548,-16.094" style="fill:#133e5e;fill-rule:nonzero;"/><path d="M598.197,295.951c0,0 8.128,1.63 11.204,8.189c2.613,5.572 0.624,8.83 -2.656,7.905c-3.278,-0.926 -7.342,-6.877 -8.548,-16.094" style="fill:#133e5e;fill-rule:nonzero;"/><path d="M589.504,333.842c-0.019,1.286 -0.076,2.564 -0.073,3.846c-0.035,1.279 -0.054,2.557 -0.054,3.835c0.001,2.556 0,5.107 0.074,7.656c0.053,2.55 0.214,5.093 0.382,7.639c0.113,1.268 0.208,2.542 0.388,3.805c0.098,1.279 0.35,2.53 0.497,3.811c-0.779,-2.45 -1.3,-4.982 -1.668,-7.53c-0.355,-2.553 -0.545,-5.125 -0.622,-7.698c-0.049,-2.573 -0.021,-5.147 0.165,-7.712c0.179,-2.564 0.435,-5.124 0.911,-7.652" style="fill:#404263;fill-rule:nonzero;"/><path d="M589.807,381.084c1.576,4.064 2.555,8.335 3.401,12.605c0.841,4.279 1.373,8.609 1.85,12.938c0.414,4.337 0.674,8.686 0.812,13.037l0.075,6.528c-0.06,2.176 -0.089,4.351 -0.182,6.524c-0.232,-4.346 -0.407,-8.684 -0.68,-13.017c-0.301,-4.331 -0.551,-8.662 -1.043,-12.971c-0.39,-4.318 -0.934,-8.621 -1.604,-12.904c-0.333,-2.142 -0.701,-4.279 -1.141,-6.403c-0.402,-2.133 -0.892,-4.246 -1.488,-6.337" style="fill:#404263;fill-rule:nonzero;"/><path d="M595.427,339.375c0,1.021 -0.828,1.85 -1.85,1.85c-1.022,0 -1.85,-0.829 -1.85,-1.85c0,-1.022 0.828,-1.851 1.85,-1.851c1.022,0 1.85,0.829 1.85,1.851" style="fill:#404263;fill-rule:nonzero;"/><path d="M602.686,222.557c-0.033,-3.61 0.156,-8.151 0.156,-8.151l-0.002,-0.001c-6.195,0.634 -12.1,-0.952 -16.251,-4.425c0,0 0.086,4.072 0.105,7.973c3.196,1.375 8.53,3.256 15.992,4.604" style="fill:#eeb8a9;fill-rule:nonzero;"/><path d="M288.344,118.295c0,0 -6.946,-8.298 0,-16.138c6.946,-7.841 19.995,-11.2 34.051,-10.64c14.056,0.56 28.337,3.92 33.098,12.04c0,0 7.645,2.036 7.883,14.738c0.237,12.703 -4.243,32.05 -4.243,32.05l-63.862,-7.57l-6.927,-24.48Z" style="fill:#000b3d;fill-rule:nonzero;"/><path d="M396.025,264.489c-5.382,-30.765 -9.418,-39.647 -15.697,-44.581c-6.279,-4.934 -45.063,-24.219 -45.063,-24.219l-11.012,1.114l-9.77,-1.562c0,0 -38.662,19.733 -44.941,24.667c-6.279,4.934 -10.315,13.816 -15.697,44.581c-5.382,30.766 1.345,52.293 12.11,50.947l10.763,-1.346l-2.691,38.214l101.816,0l-2.691,-38.214l10.764,1.346c10.765,1.346 17.491,-20.181 12.109,-50.947" style="fill:#003071;fill-rule:nonzero;"/><path d="M294.567,120.792c0,0 -2.152,34.758 10.181,52.698c12.334,17.939 34.31,10.54 41.261,0.897c6.952,-9.642 9.643,-34.31 7.176,-52.698c0,0 -17.267,3.364 -27.807,-10.763c0,0 -14.307,10.988 -30.811,9.866" style="fill:#d99d89;fill-rule:nonzero;"/><path d="M295.272,142.775l0.004,0.005c-1.322,-12.017 -0.709,-21.987 -0.709,-21.987c-2.444,-0.63 -4.492,-1.491 -6.214,-2.505l-0.009,0.007c0,0 -4.387,8.325 0.971,25.451c2.666,-2.179 5.957,-0.971 5.957,-0.971" style="fill:#000b3d;fill-rule:nonzero;"/><path d="M295.273,142.777l-0.001,-0.001c0,0 -4.875,-1.802 -7.566,2.908c-2.691,4.709 -0.897,19.073 12.445,18.842l0.004,0c-2.648,-6.882 -4.104,-14.667 -4.882,-21.749" style="fill:#d99d89;fill-rule:nonzero;"/><path d="M362.214,145.684c-2.691,-4.709 -7.566,-2.909 -7.566,-2.909c0,0 -0.308,0.365 -0.809,0.991c-0.469,7.521 -1.613,14.807 -3.385,20.749c12.71,-0.272 14.404,-14.205 11.76,-18.831" style="fill:#d99d89;fill-rule:nonzero;"/><path d="M313.269,140.526c0,3.097 -1.355,5.606 -3.028,5.606c-1.671,0 -3.026,-2.509 -3.026,-5.606c0,-3.096 1.355,-5.606 3.026,-5.606c1.673,0 3.028,2.51 3.028,5.606" style="fill:#23003f;fill-rule:nonzero;"/><path d="M341.32,140.526c0,3.097 -1.356,5.606 -3.028,5.606c-1.671,0 -3.027,-2.509 -3.027,-5.606c0,-3.096 1.356,-5.606 3.027,-5.606c1.672,0 3.028,2.51 3.028,5.606" style="fill:#23003f;fill-rule:nonzero;"/><path d="M324.252,131.525c0,0 -3.358,14.127 -4.031,18.836c-0.673,4.709 4.409,5.606 4.409,5.606" style="fill:none;fill-rule:nonzero;stroke:#b27666;stroke-width:4.17px;"/><path d="M322.395,167.383c0,0 8.142,4.107 10.159,-2.854" style="fill:none;fill-rule:nonzero;stroke:#b27666;stroke-width:4.17px;"/><path d="M304.3,129.09c0,0 1.57,-5.607 8.969,-5.83" style="fill:none;fill-rule:nonzero;stroke:#000b3d;stroke-width:4.17px;"/><path d="M334.348,124.829c0,0 6.28,-0.406 8.97,6.188" style="fill:none;fill-rule:nonzero;stroke:#000b3d;stroke-width:4.17px;"/><path d="M335.265,182.297c-6.267,2.538 -13.901,3.148 -20.762,-0.176l-0.02,0.002l0,13.118l-0.498,0.897c-1.7,3.067 -1.69,6.796 0.024,9.854l1.575,2.811c4.235,7.558 15.272,7.065 18.816,-0.84l1.972,-4.401c1.174,-2.619 0.744,-5.679 -1.107,-7.872l0,-13.393Z" style="fill:#d99d89;fill-rule:nonzero;"/><path d="M276.717,314.091c0.745,-0.476 1.405,-1.044 1.987,-1.69c0.599,-0.623 1.138,-1.299 1.646,-1.994c1.004,-1.398 1.87,-2.896 2.599,-4.464c0.778,-1.545 1.38,-3.175 2.008,-4.801l0.852,-2.481c0.276,-0.833 0.521,-1.676 0.83,-2.51c-0.082,0.881 -0.23,1.752 -0.344,2.633c-0.169,0.869 -0.37,1.733 -0.576,2.597c-0.247,0.853 -0.508,1.704 -0.804,2.543c-0.332,0.828 -0.639,1.666 -1.045,2.464c-0.772,1.611 -1.716,3.156 -2.897,4.514c-1.164,1.348 -2.574,2.584 -4.256,3.189" style="fill:#004197;fill-rule:nonzero;"/><path d="M286.639,250.406c-0.039,3.851 -0.233,7.695 -0.472,11.536c-0.241,3.842 -0.608,7.673 -0.967,11.506c-0.443,3.824 -0.902,7.649 -1.528,11.452c-0.64,3.794 -1.36,7.606 -2.624,11.251c0.184,-0.947 0.418,-1.877 0.587,-2.822c0.154,-0.949 0.336,-1.89 0.468,-2.841l0.427,-2.846l0.363,-2.856c0.462,-3.81 0.928,-7.621 1.29,-11.447c0.443,-3.814 0.794,-7.64 1.203,-11.462c0.401,-3.823 0.792,-7.648 1.253,-11.471" style="fill:#004197;fill-rule:nonzero;"/><path d="M373.297,314.091c-1.682,-0.605 -3.091,-1.841 -4.256,-3.189c-1.181,-1.358 -2.125,-2.903 -2.896,-4.514c-0.406,-0.798 -0.713,-1.637 -1.045,-2.464c-0.297,-0.839 -0.557,-1.69 -0.804,-2.543c-0.207,-0.864 -0.408,-1.728 -0.577,-2.597c-0.114,-0.881 -0.261,-1.752 -0.343,-2.633c0.309,0.834 0.553,1.677 0.83,2.51l0.852,2.481c0.627,1.626 1.23,3.256 2.007,4.801c0.729,1.568 1.596,3.065 2.6,4.464c0.507,0.695 1.046,1.371 1.646,1.994c0.581,0.646 1.242,1.214 1.986,1.69" style="fill:#004197;fill-rule:nonzero;"/><path d="M363.376,250.406c0.46,3.823 0.851,7.648 1.253,11.471c0.407,3.822 0.76,7.648 1.202,11.462c0.363,3.826 0.828,7.637 1.29,11.447l0.364,2.856l0.427,2.846c0.131,0.951 0.313,1.892 0.468,2.841c0.169,0.945 0.402,1.875 0.587,2.822c-1.264,-3.645 -1.985,-7.457 -2.625,-11.251c-0.626,-3.803 -1.085,-7.628 -1.528,-11.452c-0.358,-3.833 -0.726,-7.664 -0.966,-11.506c-0.239,-3.841 -0.434,-7.685 -0.472,-11.536" style="fill:#004197;fill-rule:nonzero;"/><path d="M274.027,352.304c0,0 -4.485,42.739 -3.812,80.412l51.973,0l5.341,-22.231l4.577,22.231l48.436,0c0,0 0.02,-33.005 -4.699,-80.412l-101.816,0Z" style="fill:#bd9479;fill-rule:nonzero;"/><path d="M333.003,352.304c0.4,3.458 0.629,6.93 0.797,10.404c0.178,3.474 0.229,6.954 0.202,10.436c-0.052,3.48 -0.171,6.966 -0.546,10.437c-0.192,1.734 -0.417,3.467 -0.755,5.183c-0.384,1.695 -0.799,3.44 -1.716,4.934c0.705,-1.593 1.004,-3.306 1.22,-5.018c0.235,-1.711 0.371,-3.436 0.466,-5.163c0.188,-3.455 0.28,-6.919 0.308,-10.385c0.053,-3.465 0.028,-6.934 0.037,-10.405l-0.013,-10.423Z" style="fill:#873f2e;fill-rule:nonzero;"/><path d="M319.884,357.426c0,0.774 -0.627,1.402 -1.401,1.402c-0.775,0 -1.401,-0.628 -1.401,-1.402c0,-0.774 0.626,-1.401 1.401,-1.401c0.774,0 1.401,0.627 1.401,1.401" style="fill:#873f2e;fill-rule:nonzero;"/><path d="M282.772,352.304c0.089,2.753 -0.161,5.506 -0.554,8.235c-0.397,2.73 -1.006,5.435 -1.849,8.074c-0.882,2.624 -1.944,5.203 -3.377,7.587c-0.778,1.15 -1.489,2.347 -2.428,3.375c-0.866,1.083 -1.926,1.989 -2.96,2.885c0.877,-1.068 1.846,-2.024 2.564,-3.193c0.841,-1.067 1.461,-2.288 2.139,-3.454c1.236,-2.415 2.245,-4.934 3.088,-7.514c0.85,-2.58 1.476,-5.232 2.051,-7.896c0.292,-1.333 0.531,-2.678 0.737,-4.029c0.245,-1.348 0.417,-2.706 0.589,-4.07" style="fill:#873f2e;fill-rule:nonzero;"/><path d="M365.294,352.304l1.011,4.325c0.327,1.441 0.665,2.878 1.028,4.309c0.727,2.861 1.455,5.718 2.312,8.532c0.843,2.817 1.797,5.6 2.999,8.263c0.617,1.321 1.317,2.612 2.224,3.737c0.858,1.146 2.095,2.101 3.611,2.109c-0.733,0.091 -1.516,-0.021 -2.19,-0.39c-0.339,-0.17 -0.649,-0.397 -0.959,-0.618c-0.276,-0.256 -0.591,-0.485 -0.838,-0.77c-1.033,-1.114 -1.832,-2.402 -2.552,-3.716c-1.404,-2.653 -2.401,-5.478 -3.275,-8.32c-0.842,-2.854 -1.55,-5.741 -2.098,-8.658c-0.551,-2.915 -1.02,-5.846 -1.273,-8.803" style="fill:#873f2e;fill-rule:nonzero;"/><path d="M335.265,188.098l0,-5.801c-6.267,2.539 -13.901,3.148 -20.762,-0.177l-0.02,0.002l0,5.813c6.887,3.118 14.446,2.581 20.782,0.163" style="fill:#af7768;fill-rule:nonzero;"/><rect x="210.704" y="262.867" width="382.362" height="151.615" style="fill:#fefefe;"/><path d="M606.074,313.335l-7.078,0.873c0,0 -3.397,-0.155 -4.631,1.375c-1.234,1.53 -2.425,7.39 -2.425,7.39c0,0 -10.469,8.078 -11.553,9.625c-1.086,1.547 -1.703,2.995 -0.889,4.528c0.814,1.533 2.963,0.637 5.013,-0.726c2.05,-1.362 7.418,-5.234 7.418,-5.234c0,0 1.512,2.067 2.544,2.335c1.032,0.267 1.788,1.557 3.855,3.122c2.066,1.565 4.217,3.064 6.648,1.154c2.432,-1.91 9.413,-7.429 10.973,-13.813c0,0 -4.905,-4.228 -9.875,-10.629" style="fill:#ffd9c0;fill-rule:nonzero;"/><path d="M628.559,237.96c0,0 6.632,-1.554 12.192,8.209c3.574,6.276 11.211,36.976 13.903,45.049c2.691,8.073 2.064,10.763 -1.322,13.006c-3.387,2.243 -38.369,22.649 -38.369,22.649c0,0 -6.727,-5.83 -8.97,-14.127c0,0 10.764,-7.625 15.697,-12.558c4.934,-4.933 11.156,-9.418 11.156,-9.418c0,0 -6.754,-17.627 -7.736,-27.903c-0.982,-10.276 -0.644,-21.207 3.449,-24.907" style="fill:#0d3254;fill-rule:nonzero;"/><path d="M632.847,290.77c0.659,-0.335 1.37,-0.518 2.086,-0.63c0.717,-0.116 1.446,-0.131 2.172,-0.093c1.443,0.104 2.919,0.501 4.095,1.395c-0.741,-0.047 -1.421,-0.152 -2.112,-0.209c-0.688,-0.057 -1.366,-0.134 -2.052,-0.165c-1.371,-0.106 -2.735,-0.142 -4.189,-0.298" style="fill:#64628e;fill-rule:nonzero;"/><path d="M134.604,268.57c0,0 -2.915,3.924 -6.167,20.35c-3.251,16.425 -12.445,45.802 -11.548,51.183c0.897,5.382 15.921,8.97 32.291,10.316c16.37,1.345 23.109,3.458 26.461,0c1.794,-2.467 2.242,-14.576 2.018,-17.491c-0.224,-2.916 -1.57,-6.279 -4.709,-5.831c-3.14,0.449 -23.995,-2.018 -23.995,-2.018c0,0 0.217,-2.467 -1.685,-2.915l4.601,-16.146c0,0 -1.233,-10.651 -4.485,-20.406c-3.252,-9.755 -7.513,-14.8 -12.782,-17.042" style="fill:#ebeef7;fill-rule:nonzero;"/><path d="M177.659,332.928l6.391,-3.925c0,0 2.691,-2.354 4.709,-1.906c2.018,0.449 6.839,4.485 6.839,4.485c0,0 13.903,-0.224 15.81,0.336c1.906,0.561 3.364,1.346 3.7,3.14c0.336,1.794 -2.019,2.466 -4.597,2.691c-2.58,0.224 -9.53,0.56 -9.53,0.56c0,0 0.111,2.691 -0.561,3.588c-0.673,0.897 -0.449,2.453 -1.122,5.095c-0.672,2.642 -1.457,5.284 -4.708,5.308c-3.252,0.025 -12.61,0.065 -18.078,-4.16c0,0 1.259,-6.691 1.147,-15.212" style="fill:#ffd9c0;fill-rule:nonzero;"/><path d="M147.27,322.164c-1.284,0.107 -2.482,0.273 -3.645,0.613c-1.173,0.314 -2.254,0.827 -3.414,1.405c0.392,-0.51 0.858,-0.988 1.418,-1.33c0.543,-0.371 1.158,-0.628 1.788,-0.813c1.262,-0.35 2.644,-0.373 3.853,0.125" style="fill:#64628e;fill-rule:nonzero;"/><path d="M148.956,325.079c-0.883,0.593 -1.754,1.067 -2.61,1.58c-0.87,0.495 -1.682,1.025 -2.606,1.559c0.484,-0.958 1.316,-1.687 2.218,-2.221c0.915,-0.52 1.923,-0.899 2.998,-0.918" style="fill:#64628e;fill-rule:nonzero;"/><path d="M257.021,262.981c0,0 0.84,-7.547 -0.562,-8.597c-1.402,-1.052 -3.68,-1.052 -3.68,-1.052c0,0 -1.929,-2.63 -4.382,-2.98c0,0 -1.752,-2.804 -6.484,-1.752c-4.732,1.051 -9.464,2.278 -10.165,5.257c-0.701,2.98 -2.629,15.072 -1.927,16.299c0.7,1.227 2.978,3.856 4.205,1.752c0,0 1.227,2.98 3.68,2.279c2.454,-0.701 2.63,-4.557 2.63,-4.557c0,0 3.68,3.68 5.958,-1.051c2.279,-4.732 4.36,-5.565 4.36,-5.565l6.367,-0.033Z" style="fill:#ffd9c0;fill-rule:nonzero;"/><path d="M248.813,255.325c-1.265,0.793 -2.463,1.655 -3.558,2.6c-0.538,0.483 -1.068,0.969 -1.509,1.521c-0.459,0.534 -0.864,1.109 -1.135,1.733c-0.576,1.273 -0.978,2.709 -1.338,4.114c-0.35,1.419 -0.611,2.872 -0.937,4.337c-0.072,-1.488 -0.076,-2.996 0.151,-4.488c0.219,-1.5 0.569,-2.957 1.197,-4.395c0.687,-1.463 1.847,-2.571 3.08,-3.448c1.239,-0.887 2.617,-1.54 4.049,-1.974" style="fill:#cc967a;fill-rule:nonzero;"/><path d="M242.242,253.091c-1.729,0.642 -3.283,1.683 -4.358,3.055c-0.525,0.693 -0.946,1.458 -1.163,2.292c-0.24,0.848 -0.442,1.747 -0.611,2.64c-0.372,1.786 -0.674,3.597 -1.013,5.403c-0.321,1.809 -0.679,3.617 -1.071,5.427c0,-3.706 0.375,-7.387 1.081,-11.033c0.193,-0.912 0.397,-1.814 0.692,-2.726c0.305,-0.934 0.813,-1.806 1.477,-2.517c1.316,-1.445 3.137,-2.281 4.966,-2.541" style="fill:#cc967a;fill-rule:nonzero;"/><path d="M535.637,262.981c0,0 0.84,-7.547 -0.562,-8.597c-1.402,-1.052 -3.68,-1.052 -3.68,-1.052c0,0 -1.928,-2.63 -4.382,-2.98c0,0 -1.752,-2.804 -6.484,-1.752c-4.732,1.051 -9.464,2.278 -10.165,5.257c-0.701,2.98 -2.629,15.072 -1.928,16.299c0.701,1.227 2.98,3.856 4.206,1.752c0,0 1.227,2.98 3.681,2.279c2.453,-0.701 2.629,-4.557 2.629,-4.557c0,0 3.68,3.68 5.958,-1.051c2.278,-4.732 4.36,-5.565 4.36,-5.565l6.367,-0.033Z" style="fill:#cc6f4c;fill-rule:nonzero;"/><path d="M527.43,255.325c-1.266,0.793 -2.464,1.655 -3.558,2.6c-0.538,0.483 -1.068,0.969 -1.51,1.521c-0.458,0.534 -0.864,1.109 -1.134,1.733c-0.577,1.273 -0.978,2.709 -1.339,4.114c-0.35,1.419 -0.611,2.872 -0.937,4.337c-0.071,-1.488 -0.076,-2.996 0.152,-4.488c0.218,-1.5 0.568,-2.957 1.196,-4.395c0.688,-1.463 1.847,-2.571 3.08,-3.448c1.239,-0.887 2.617,-1.54 4.05,-1.974" style="fill:#a55337;fill-rule:nonzero;"/><path d="M520.858,253.091c-1.729,0.642 -3.283,1.683 -4.358,3.055c-0.524,0.693 -0.946,1.458 -1.163,2.292c-0.24,0.848 -0.442,1.747 -0.611,2.64c-0.372,1.786 -0.673,3.597 -1.012,5.403c-0.322,1.809 -0.679,3.617 -1.072,5.427c0,-3.706 0.375,-7.387 1.081,-11.033c0.193,-0.912 0.397,-1.814 0.692,-2.726c0.305,-0.934 0.813,-1.806 1.477,-2.517c1.316,-1.445 3.137,-2.281 4.966,-2.541" style="fill:#a55337;fill-rule:nonzero;"/><path d="M541.47,262.981c0,0 -0.84,-7.547 0.562,-8.597c1.402,-1.052 3.681,-1.052 3.681,-1.052c0,0 1.927,-2.63 4.381,-2.98c0,0 1.753,-2.804 6.484,-1.752c4.732,1.051 9.464,2.278 10.165,5.257c0.701,2.98 2.629,15.072 1.928,16.299c-0.701,1.227 -2.979,3.856 -4.206,1.752c0,0 -1.227,2.98 -3.68,2.279c-2.454,-0.701 -2.629,-4.557 -2.629,-4.557c0,0 -3.681,3.68 -5.959,-1.051c-2.278,-4.732 -4.359,-5.565 -4.359,-5.565l-6.368,-0.033Z" style="fill:#ffd9c0;fill-rule:nonzero;"/><path d="M549.678,255.325c1.432,0.434 2.811,1.087 4.049,1.974c1.234,0.877 2.392,1.985 3.08,3.448c0.628,1.438 0.978,2.895 1.196,4.395c0.228,1.492 0.224,3 0.153,4.488c-0.327,-1.465 -0.587,-2.918 -0.937,-4.337c-0.361,-1.405 -0.762,-2.841 -1.339,-4.114c-0.271,-0.624 -0.675,-1.199 -1.135,-1.733c-0.441,-0.552 -0.972,-1.038 -1.509,-1.521c-1.095,-0.945 -2.293,-1.807 -3.558,-2.6" style="fill:#cc967a;fill-rule:nonzero;"/><path d="M556.25,253.091c1.829,0.26 3.649,1.096 4.965,2.541c0.664,0.711 1.173,1.583 1.478,2.517c0.294,0.912 0.498,1.814 0.691,2.726c0.707,3.646 1.081,7.327 1.081,11.033c-0.392,-1.81 -0.749,-3.618 -1.071,-5.427c-0.338,-1.806 -0.641,-3.617 -1.013,-5.403c-0.168,-0.893 -0.37,-1.792 -0.611,-2.64c-0.217,-0.834 -0.638,-1.599 -1.163,-2.292c-1.075,-1.372 -2.63,-2.413 -4.357,-3.055" style="fill:#cc967a;fill-rule:nonzero;"/><path d="M398.138,262.981c0,0 -0.84,-7.547 0.562,-8.597c1.402,-1.052 3.68,-1.052 3.68,-1.052c0,0 1.928,-2.63 4.382,-2.98c0,0 1.752,-2.804 6.484,-1.752c4.732,1.051 9.464,2.278 10.165,5.257c0.701,2.98 2.629,15.072 1.927,16.299c-0.7,1.227 -2.979,3.856 -4.205,1.752c0,0 -1.227,2.98 -3.681,2.279c-2.453,-0.701 -2.629,-4.557 -2.629,-4.557c0,0 -3.68,3.68 -5.958,-1.051c-2.279,-4.732 -4.36,-5.565 -4.36,-5.565l-6.367,-0.033Z" style="fill:#cc6f4c;fill-rule:nonzero;"/><path d="M406.346,255.325c1.432,0.434 2.81,1.087 4.049,1.974c1.234,0.877 2.392,1.985 3.08,3.448c0.628,1.438 0.978,2.895 1.196,4.395c0.229,1.492 0.223,3 0.152,4.488c-0.326,-1.465 -0.587,-2.918 -0.937,-4.337c-0.361,-1.405 -0.762,-2.841 -1.339,-4.114c-0.27,-0.624 -0.674,-1.199 -1.134,-1.733c-0.442,-0.552 -0.972,-1.038 -1.51,-1.521c-1.094,-0.945 -2.292,-1.807 -3.557,-2.6" style="fill:#a55337;fill-rule:nonzero;"/><path d="M412.918,253.091c1.828,0.26 3.648,1.096 4.965,2.541c0.664,0.711 1.172,1.583 1.477,2.517c0.295,0.912 0.499,1.814 0.692,2.726c0.706,3.646 1.08,7.327 1.08,11.033c-0.392,-1.81 -0.749,-3.618 -1.07,-5.427c-0.339,-1.806 -0.641,-3.617 -1.013,-5.403c-0.168,-0.893 -0.371,-1.792 -0.611,-2.64c-0.217,-0.834 -0.639,-1.599 -1.163,-2.292c-1.075,-1.372 -2.63,-2.413 -4.357,-3.055" style="fill:#a55337;fill-rule:nonzero;"/><path d="M394.094,262.981c0,0 0.84,-7.547 -0.562,-8.597c-1.402,-1.052 -3.681,-1.052 -3.681,-1.052c0,0 -1.927,-2.63 -4.381,-2.98c0,0 -1.752,-2.804 -6.484,-1.752c-4.732,1.051 -9.464,2.278 -10.165,5.257c-0.701,2.98 -2.629,15.072 -1.928,16.299c0.701,1.227 2.979,3.856 4.206,1.752c0,0 1.227,2.98 3.68,2.279c2.454,-0.701 2.63,-4.557 2.63,-4.557c0,0 3.679,3.68 5.958,-1.051c2.278,-4.732 4.36,-5.565 4.36,-5.565l6.367,-0.033Z" style="fill:#d99d89;fill-rule:nonzero;"/><path d="M385.886,255.325c-1.265,0.793 -2.463,1.655 -3.557,2.6c-0.538,0.483 -1.068,0.969 -1.51,1.521c-0.46,0.534 -0.864,1.109 -1.134,1.733c-0.578,1.273 -0.978,2.709 -1.34,4.114c-0.35,1.419 -0.61,2.872 -0.937,4.337c-0.07,-1.488 -0.074,-2.996 0.153,-4.488c0.218,-1.5 0.568,-2.957 1.196,-4.395c0.688,-1.463 1.846,-2.571 3.08,-3.448c1.238,-0.887 2.617,-1.54 4.049,-1.974" style="fill:#b27666;fill-rule:nonzero;"/><path d="M379.314,253.091c-1.728,0.642 -3.282,1.683 -4.357,3.055c-0.525,0.693 -0.946,1.458 -1.163,2.292c-0.241,0.848 -0.442,1.747 -0.611,2.64c-0.372,1.786 -0.674,3.597 -1.013,5.403c-0.322,1.809 -0.679,3.617 -1.071,5.427c0,-3.706 0.375,-7.387 1.081,-11.033c0.193,-0.912 0.397,-1.814 0.691,-2.726c0.306,-0.934 0.814,-1.806 1.478,-2.517c1.316,-1.445 3.137,-2.281 4.965,-2.541" style="fill:#b27666;fill-rule:nonzero;"/><path d="M256.595,262.981c0,0 -0.841,-7.547 0.562,-8.597c1.402,-1.052 3.68,-1.052 3.68,-1.052c0,0 1.928,-2.63 4.381,-2.98c0,0 1.753,-2.804 6.485,-1.752c4.732,1.051 9.464,2.278 10.164,5.257c0.702,2.98 2.63,15.072 1.929,16.299c-0.702,1.227 -2.98,3.856 -4.206,1.752c0,0 -1.228,2.98 -3.681,2.279c-2.454,-0.701 -2.629,-4.557 -2.629,-4.557c0,0 -3.68,3.68 -5.959,-1.051c-2.278,-4.732 -4.359,-5.565 -4.359,-5.565l-6.367,-0.033Z" style="fill:#d99d89;fill-rule:nonzero;"/><path d="M264.803,255.325c1.431,0.434 2.81,1.087 4.048,1.974c1.234,0.877 2.392,1.985 3.081,3.448c0.627,1.438 0.978,2.895 1.196,4.395c0.228,1.492 0.223,3 0.152,4.488c-0.326,-1.465 -0.587,-2.918 -0.937,-4.337c-0.361,-1.405 -0.762,-2.841 -1.339,-4.114c-0.27,-0.624 -0.675,-1.199 -1.135,-1.733c-0.441,-0.552 -0.972,-1.038 -1.509,-1.521c-1.095,-0.945 -2.293,-1.807 -3.557,-2.6" style="fill:#b27666;fill-rule:nonzero;"/><path d="M271.375,253.091c1.828,0.26 3.648,1.096 4.965,2.541c0.663,0.711 1.172,1.583 1.478,2.517c0.294,0.912 0.497,1.814 0.691,2.726c0.706,3.646 1.081,7.327 1.08,11.033c-0.392,-1.81 -0.748,-3.618 -1.07,-5.427c-0.339,-1.806 -0.641,-3.617 -1.014,-5.403c-0.168,-0.893 -0.37,-1.792 -0.61,-2.64c-0.217,-0.834 -0.639,-1.599 -1.163,-2.292c-1.076,-1.372 -2.63,-2.413 -4.357,-3.055" style="fill:#b27666;fill-rule:nonzero;"/><path d="M312.379,314.086l-3.686,0l0,33.178l3.686,0l0,12.091l-27.869,0l0,-12.091l3.539,0l0,-25.805l-12.534,37.896l-10.911,0l-12.903,-37.527l0,25.436l3.539,0l0,12.091l-24.183,0l0,-12.091l3.687,0l0,-33.178l-3.687,0l0,-12.091l33.768,0l7.668,23.003l7.372,-23.003l32.514,0l0,12.091Z" style="fill:#d1335b;fill-rule:nonzero;"/><path d="M359.565,318.363l0,12.091l-2.801,0l-9.659,25.584c-2.408,6.439 -5.161,11.268 -8.257,14.487c-3.097,3.22 -7.176,4.829 -12.239,4.829c-2.064,0 -4.153,-0.209 -6.267,-0.626c-2.114,-0.418 -4.03,-0.996 -5.751,-1.733l0,-13.345l10.175,0l0,0.738c0,1.228 0.639,1.843 1.917,1.843c1.13,0 1.99,-0.541 2.58,-1.622l-11.649,-30.155l-2.802,0l0,-12.091l21.898,0l0,12.091l-2.507,0l3.834,11.502l3.539,-11.502l-2.507,0l0,-12.091l20.496,0Z" style="fill:#d1335b;fill-rule:nonzero;"/><path d="M443.025,314.086l-3.686,0l0,33.178l3.686,0l0,12.091l-27.869,0l0,-12.091l3.539,0l0,-12.165l-10.322,0l0,12.165l3.539,0l0,12.091l-27.869,0l0,-12.091l3.686,0l0,-33.178l-3.686,0l0,-12.091l27.869,0l0,12.091l-3.539,0l0,11.207l10.322,0l0,-11.207l-3.539,0l0,-12.091l27.869,0l0,12.091Z" style="fill:#d1335b;fill-rule:nonzero;"/><path d="M467.798,360.388c-6.98,0 -12.435,-1.831 -16.368,-5.493c-3.932,-3.662 -5.898,-9.007 -5.898,-16.036c0,-7.029 1.966,-12.374 5.898,-16.036c3.933,-3.662 9.388,-5.493 16.368,-5.493c6.93,0 11.932,1.807 15.004,5.419c3.072,3.613 4.608,8.098 4.608,13.456l0,5.308l-23.888,0l0,0.443c0,1.818 0.54,3.158 1.622,4.018c1.081,0.86 2.875,1.29 5.382,1.29c2.998,0 5.849,-0.221 8.552,-0.664c2.704,-0.442 5.063,-1.007 7.078,-1.695l0,11.796c-1.72,0.934 -4.239,1.782 -7.557,2.544c-3.318,0.762 -6.918,1.143 -10.801,1.143Zm4.276,-26.985l0,-0.885c0,-1.671 -0.356,-2.875 -1.069,-3.612c-0.713,-0.738 -1.782,-1.106 -3.207,-1.106c-1.425,0 -2.494,0.381 -3.207,1.143c-0.713,0.761 -1.069,1.953 -1.069,3.575l0,0.885l8.552,0Z" style="fill:#d1335b;fill-rule:nonzero;"/><path d="M521.103,317.33c0.983,0 1.917,0.099 2.802,0.295c0.885,0.197 1.622,0.443 2.212,0.738l0,14.082c-2.015,-0.836 -4.178,-1.254 -6.488,-1.254c-3.097,0 -5.481,0.811 -7.152,2.433c-1.671,1.622 -2.507,4.031 -2.507,7.226l0,6.414l6.636,0l0,12.091l-26.837,0l0,-12.091l3.244,0l0,-16.81l-3.244,0l0,-12.091l20.201,0l0,5.382c1.377,-2.065 2.95,-3.65 4.719,-4.756c1.769,-1.106 3.908,-1.659 6.414,-1.659Z" style="fill:#d1335b;fill-rule:nonzero;"/><path d="M550.447,360.388c-6.979,0 -12.435,-1.831 -16.368,-5.493c-3.932,-3.662 -5.898,-9.007 -5.898,-16.036c0,-7.029 1.966,-12.374 5.898,-16.036c3.933,-3.662 9.389,-5.493 16.368,-5.493c7.078,0 12.558,1.856 16.441,5.567c3.883,3.711 5.825,9.032 5.825,15.962c0,7.029 -1.966,12.374 -5.898,16.036c-3.932,3.662 -9.388,5.493 -16.368,5.493Zm0,-13.124c1.426,0 2.495,-0.381 3.207,-1.143c0.713,-0.762 1.069,-1.954 1.069,-3.576l0,-7.372c0,-1.622 -0.356,-2.814 -1.069,-3.576c-0.712,-0.762 -1.781,-1.143 -3.207,-1.143c-1.425,0 -2.494,0.381 -3.207,1.143c-0.713,0.762 -1.069,1.954 -1.069,3.576l0,7.372c0,1.622 0.356,2.814 1.069,3.576c0.713,0.762 1.782,1.143 3.207,1.143Z" style="fill:#d1335b;fill-rule:nonzero;"/></g></svg>