<?xml version="1.0" encoding="UTF-8" standalone="no"?><!DOCTYPE svg PUBLIC "-//W3C//DTD SVG 1.1//EN" "http://www.w3.org/Graphics/SVG/1.1/DTD/svg11.dtd"><svg width="100%" height="100%" viewBox="0 0 768 768" version="1.1" xmlns="http://www.w3.org/2000/svg" xmlns:xlink="http://www.w3.org/1999/xlink" xml:space="preserve" xmlns:serif="http://www.serif.com/" style="fill-rule:evenodd;clip-rule:evenodd;stroke-linecap:round;stroke-linejoin:round;stroke-miterlimit:1.5;"><g><rect x="0" y="0" width="768" height="768" style="fill:#929292;"/><rect x="465.712" y="60.94" width="15.783" height="77.405" style="fill:#fff;fill-rule:nonzero;"/><path d="M548.365,77.527l-29.621,0l0,-16.587l57.294,0l-34.302,60.818l29.62,0l0,16.586l-57.294,0l34.303,-60.817Z" style="fill:#fff;fill-rule:nonzero;"/><path d="M638.224,77.527l-29.62,0l0,-16.587l57.294,0l-34.303,60.818l29.62,0l0,16.586l-57.293,0l34.302,-60.817Z" style="fill:#fff;fill-rule:nonzero;"/><rect x="698.464" y="60.94" width="15.783" height="77.405" style="fill:#fff;fill-rule:nonzero;"/><path d="M0,0c403.414,128.623 659.612,384.452 768,768l-768,0l0,-768Z" style="fill:#575463;"/><g><path d="M372.661,544.297l-0.007,0.003c-36.969,-51.069 -65.615,-69.854 -65.615,-69.854l-63.33,-7.895l-63.332,7.895c0,0 -28.654,18.791 -65.63,69.878l-0.008,-0.003c0,0 -0.939,1.128 -2.26,3.149c-0.019,0.027 -0.038,0.052 -0.057,0.078l0.005,0.004c-3.676,5.642 -10.298,18.252 -8.72,34.127c0,0 2.894,-6.29 8.748,-13.002c-1.338,5.196 -2.081,11.233 -1.422,17.872c0,0 3.981,-8.681 12.096,-16.531c-2.248,6.167 -3.913,14.027 -3.021,22.999c0,0 5.859,-12.826 17.914,-21.392c-0.398,11.061 -5.336,15.894 -5.336,15.894c18.458,-2.9 21.782,-16.202 21.804,-16.292c1.653,-3.954 8.255,-18.511 18.208,-24.718c6.688,-4.172 14.817,2.611 11.983,9.966c-6.251,16.223 -16.933,70.32 -18.517,102.787l45.907,0c0,0 5.391,-44.273 31.638,-44.273c26.246,0 31.636,44.273 31.636,44.273l45.907,0c-1.584,-32.467 -12.265,-86.564 -18.516,-102.787c-2.835,-7.355 5.294,-14.138 11.982,-9.966c10.427,6.502 17.172,22.157 18.407,25.193c0.777,2.377 5.19,13.23 21.659,15.817c0,0 -4.939,-4.833 -5.336,-15.894c12.054,8.566 17.914,21.392 17.914,21.392c0.892,-8.972 -0.774,-16.834 -3.023,-22.999c8.116,7.848 12.096,16.531 12.096,16.531c0.661,-6.639 -0.083,-12.676 -1.42,-17.872c5.852,6.712 8.748,13.002 8.748,13.002c2.155,-21.701 -11.102,-37.382 -11.102,-37.382" style="fill:#282828;fill-rule:nonzero;"/><path d="M283.226,508.13c0,39.38 -17.601,71.305 -39.314,71.305c-21.711,0 -39.312,-31.925 -39.312,-71.305c0,-39.379 17.601,-71.305 39.312,-71.305c21.713,0 39.314,31.926 39.314,71.305" style="fill:#fff;fill-rule:nonzero;"/><ellipse cx="244.148" cy="385.515" rx="127.761" ry="119.615" style="fill:#282828;"/><path d="M243.734,351.322c65.721,0 119.078,-30.99 119.078,34.731c0,65.721 -53.357,119.078 -119.078,119.078c-65.721,0 -119.078,-53.357 -119.078,-119.078c0,-65.721 53.357,-34.731 119.078,-34.731Z" style="fill:#282828;"/><path d="M121.442,393.052c11.745,-3.726 25.315,5.963 30.284,21.624c4.969,15.661 -0.533,31.401 -12.279,35.127c-11.745,3.727 -25.315,-5.962 -30.284,-21.623c-4.969,-15.661 0.533,-31.401 12.279,-35.128Z" style="fill:#282828;"/><path d="M367.68,393.879c-11.746,-3.727 -25.316,5.963 -30.284,21.624c-4.969,15.66 0.533,31.401 12.279,35.127c11.745,3.727 25.315,-5.962 30.284,-21.623c4.969,-15.661 -0.533,-31.401 -12.279,-35.128Z" style="fill:#282828;"/><path d="M207.183,415.822c0,11.6 -9.404,21.003 -21.003,21.003c-11.601,0 -21.004,-9.403 -21.004,-21.003c0,-11.6 9.403,-21.003 21.004,-21.003c11.599,0 21.003,9.403 21.003,21.003" style="fill:#808080;fill-rule:nonzero;"/><path d="M204.041,416.401c0,9.91 -8.034,17.944 -17.944,17.944c-9.91,0 -17.944,-8.034 -17.944,-17.944c0,-9.911 8.034,-17.944 17.944,-17.944c9.91,0 17.944,8.033 17.944,17.944" style="fill:#484848;fill-rule:nonzero;"/><path d="M170.964,406.726c-4.469,18.947 13.37,24.81 30.183,17.879c-0.61,-16.969 -14.204,-18.637 -30.183,-17.879Z"/><circle cx="177.249" cy="414.251" r="2.15" style="fill:#fff;"/><path d="M283.593,415.822c0,11.6 9.404,21.003 21.003,21.003c11.6,0 21.004,-9.403 21.004,-21.003c0,-11.6 -9.404,-21.003 -21.004,-21.003c-11.599,0 -21.003,9.403 -21.003,21.003" style="fill:#808080;fill-rule:nonzero;"/><path d="M286.734,416.401c0,9.91 8.035,17.944 17.944,17.944c9.911,0 17.945,-8.034 17.945,-17.944c0,-9.911 -8.034,-17.944 -17.945,-17.944c-9.909,0 -17.944,8.033 -17.944,17.944" style="fill:#484848;fill-rule:nonzero;"/><path d="M319.812,406.726c4.468,18.947 -13.37,24.81 -30.183,17.879c0.61,-16.969 14.204,-18.637 30.183,-17.879Z"/><circle cx="313.527" cy="414.251" r="2.15" style="fill:#fff;"/><path d="M149.053,350.081c-4.793,-3.695 0.837,-10.144 14.088,-18.606l0,18.606l-14.088,0Z" style="fill:#282828;"/><path d="M243.734,274.045c0.277,-0.002 0.555,-0.003 0.832,-0.003c60.939,0 111.248,45.874 118.246,104.943c-8.376,-45.061 -57.976,-19.356 -117.832,-19.356c-0.416,0 -0.831,-0.001 -1.246,-0.004c-0.415,0.003 -0.83,0.004 -1.246,0.004c-59.856,0 -109.456,-25.705 -117.832,19.356c6.998,-59.069 57.307,-104.943 118.246,-104.943c0.277,0 0.555,0.001 0.832,0.003Z" style="fill:#fff;"/><path d="M155.252,354.753c0.029,-7.519 4.336,-14.427 12.404,-20.797c-3.491,8.856 0.965,17.1 12.404,24.808l-24.808,-4.011Z" style="fill:#282828;"/><path d="M211.738,289.324c-3.504,-8.507 -1.415,-21.636 10.487,-30.564c-0.959,12.144 5.641,20.547 26.104,22.22l-36.591,8.344Z" style="fill:#fff;"/><path d="M226.093,289.497c0.979,-12.02 8.669,-22.536 22.257,-31.729c-6.637,13.731 -0.595,27.465 16.591,41.2l-38.848,-9.471Z" style="fill:#fff;"/><path d="M220.993,371.787c0.029,-13.495 4.336,-25.892 12.404,-37.326c-3.491,15.894 0.965,30.691 12.404,44.524l-24.808,-7.198Z" style="fill:#282828;"/><path d="M316.504,358.972c-0.029,-9.044 -4.336,-17.353 -12.404,-25.016c3.491,10.652 -0.964,20.569 -12.404,29.84l24.808,-4.824Z" style="fill:#282828;"/><path d="M204.868,364.676c-0.028,-7.519 -4.336,-14.426 -12.404,-20.797c3.491,8.856 -0.964,17.101 -12.404,24.808l24.808,-4.011Z" style="fill:#282828;"/><path d="M331.508,363.673c1.176,-8.298 -2.826,-16.662 -11.381,-25.086c2.72,10.371 -3.898,18.692 -18.722,25.209l30.103,-0.123Z" style="fill:#282828;"/><path d="M220.993,365.726c-0.037,-8.459 -5.636,-16.231 -16.125,-23.397c4.539,9.963 -1.253,19.238 -16.125,27.909l32.25,-4.512Z" style="fill:#282828;"/><path d="M358.677,369.927c-0.028,-7.519 -16.739,-24.639 -24.808,-31.009c5.737,8.855 10.325,28.264 -3.721,35.971l28.529,-4.962Z" style="fill:#282828;"/><circle cx="244.561" cy="452.248" r="27.672" style="fill:#fff;"/><path d="M209.272,276.218c0.232,-9.37 6.004,-16.589 16.821,-25.958c-3.031,7.927 -3.124,15.854 4.435,23.782l14.989,-22.459l2.812,20.143" style="fill:none;stroke:#282828;stroke-width:7px;"/><path d="M264.42,454.006c0,-5.377 -5.173,6.7 -10.465,7.361c-3.61,0.45 8.004,-8.897 -9.394,-9.115c-16.407,-0.206 -5.94,8.561 -9.408,8.506c-5.354,-0.087 -10.451,-12.239 -10.451,-6.752c0,9.044 8.89,20.177 19.859,20.177c10.968,0 19.859,-11.133 19.859,-20.177" style="fill:#7d6147;fill-rule:nonzero;"/></g></g></svg>