<?xml version="1.0" encoding="UTF-8" standalone="no"?><!DOCTYPE svg PUBLIC "-//W3C//DTD SVG 1.1//EN" "http://www.w3.org/Graphics/SVG/1.1/DTD/svg11.dtd"><svg width="100%" height="100%" viewBox="0 0 50 50" version="1.1" xmlns="http://www.w3.org/2000/svg" xmlns:xlink="http://www.w3.org/1999/xlink" xml:space="preserve" xmlns:serif="http://www.serif.com/" style="fill-rule:evenodd;clip-rule:evenodd;stroke-linejoin:round;stroke-miterlimit:2;"><path id="wtf" d="M40,20.2l0,-0.1l0,-0.1l0,-0.1l0,-0.1l0,-0.1l0,-0.1c0,0 0,-0.1 -0.1,-0.1l0,-0.1l-0.1,-0.1l-0.1,0l-0.1,-0.1l-0.1,0l-13.7,-9.1c-0.4,-0.3 -1,-0.3 -1.4,0l-13.7,9.1l-0.1,0l-0.1,0.1l-0.1,0l-0.1,0.1l0,0.1c0,0 0,0.1 -0.1,0.1l0,10.9c0,0 0,0.1 0.1,0.1l0,0.1l0.3,0.3l0.1,0l13.7,9.1c0.2,0.1 0.5,0.2 0.7,0.2c0.2,0 0.5,-0.1 0.7,-0.2l13.7,-9.1l0.1,0c0,0 0.1,0 0.1,-0.1l0.1,-0.1l0.1,-0.1l0,-0.1c0,0 0,-0.1 0.1,-0.1l0,-0.1l0,-0.1l0,-0.1l0,-0.1l0,-0.1l0,-0.1l0,-0.1l0,-0.2l0,-9.1l0,-0.3l0,0Zm-15,7.8l-4.6,-3l4.6,-3l4.6,3l-4.6,3Zm-1.3,-8.3l-5.6,3.7l-4.5,-3l10.1,-6.7l0,6Zm-7.9,5.3l-3.2,2.2l0,-4.3l3.2,2.1Zm2.3,1.5l5.6,3.7l0,6l-10.1,-6.7l4.5,-3Zm8.2,3.8l5.6,-3.7l4.5,3l-10.1,6.7l0,-6Zm7.9,-5.3l3.2,-2.2l0,4.3l-3.2,-2.1Zm-2.3,-1.6l-5.6,-3.7l0,-6l10.1,6.7l-4.5,3Z" style="fill:#fff;fill-rule:nonzero;"/><path d="M25,1c-13.3,0 -24,10.7 -24,24c0,13.3 10.7,24 24,24c13.3,0 24,-10.7 24,-24c0,-13.3 -10.7,-24 -24,-24Zm0,43c-10.5,0 -19,-8.5 -19,-19c0,-10.5 8.5,-19 19,-19c10.5,0 19,8.5 19,19c0,10.5 -8.5,19 -19,19Z" style="fill:#fff;fill-rule:nonzero;"/></svg>